<svg width="1550" height="503" viewBox="0 0 1550 503" fill="none" xmlns="http://www.w3.org/2000/svg">
<g clip-path="url(#clip0_4_6)">
<rect width="1550" height="503" fill="url(#paint0_linear_4_6)"/>
<path fill-rule="evenodd" clip-rule="evenodd" d="M1154.75 199.193C1148.9 200.211 1140.34 204.396 1136.92 207.905C1131.48 213.492 1129.79 217.632 1129.78 225.327C1129.78 231.14 1130.13 232.786 1132.18 236.465C1138.56 247.928 1153.85 254.189 1168.08 251.166C1197.06 245.005 1201.03 211.902 1174.04 201.431C1167.86 199.033 1160.54 198.184 1154.75 199.193ZM1161.74 202.913C1161.74 204.595 1157.74 207.516 1155.44 207.516C1153.43 207.516 1148.96 204.572 1149.62 203.678C1150.3 202.757 1155.21 201.605 1158.81 201.521C1161.13 201.467 1161.74 201.757 1161.74 202.913ZM1173.64 204.053C1178.47 205.983 1184.25 211.13 1186.75 215.716C1189.33 220.471 1189.86 227.93 1187.95 232.716C1186.68 235.87 1186.37 236 1183.85 234.397C1181.18 232.696 1175.74 232.994 1173.03 234.99C1169.81 237.356 1168.87 240.654 1170.36 244.309C1171.73 247.654 1171.34 248.106 1166.38 248.909C1158.21 250.233 1148.5 248.054 1141.97 243.426C1135.63 238.933 1131.31 229.58 1132.44 222.76C1133.32 217.429 1137.82 210.257 1142.07 207.426C1145.73 204.984 1145.74 204.981 1147.21 206.537C1152.2 211.822 1161.81 210.509 1164.54 204.17C1165.52 201.876 1165.87 201.685 1168.08 202.219C1169.42 202.544 1171.92 203.369 1173.64 204.053ZM1168.14 213.121C1165.58 214.317 1163.62 217.067 1163.57 219.529C1163.53 221.767 1168.97 226.464 1171.6 226.464C1174.79 226.464 1178.52 224.408 1179.7 222.002C1182.83 215.653 1175.23 209.815 1168.14 213.121ZM1141.06 216.561C1138.73 220.239 1141.17 223.671 1145.84 223.283C1147.75 223.126 1149.05 222.422 1149.95 221.056C1151.14 219.268 1151.12 218.852 1149.74 217.077C1147.78 214.569 1142.53 214.257 1141.06 216.561ZM1175.97 216.004C1177.49 217.292 1177.3 220.832 1175.63 222.241C1171.26 225.917 1165.08 221.27 1168.07 216.561C1169.14 214.88 1174.21 214.523 1175.97 216.004ZM1147.17 219.085C1147.52 220.651 1144.93 221.707 1143.55 220.552C1142.18 219.397 1143.44 217.21 1145.3 217.511C1146.16 217.651 1147 218.359 1147.17 219.085ZM1147.52 230.29C1145.12 231.101 1142.59 235.612 1143.43 237.6C1145.46 242.437 1151.87 243.933 1155.93 240.519C1159.87 237.199 1158.52 231.959 1153.28 230.283C1150.42 229.366 1150.25 229.367 1147.52 230.29ZM1154.02 233.718C1155.92 235.314 1155.8 236.765 1153.64 238.59C1151.47 240.415 1149.75 240.511 1147.85 238.915C1146.17 237.502 1146 234.712 1147.51 233.436C1149.03 232.161 1152.34 232.304 1154.02 233.718ZM1182.75 236.664C1185 238.099 1184.06 240.258 1179.94 243.12C1176.09 245.791 1174.76 245.961 1173.48 243.946C1171.97 241.575 1172.39 239.406 1174.75 237.419C1177.21 235.349 1180.25 235.064 1182.75 236.664Z" fill="white" fill-opacity="0.1"/>
<path fill-rule="evenodd" clip-rule="evenodd" d="M1351.07 259.51C1345.23 260.528 1336.67 264.712 1333.25 268.222C1327.81 273.809 1326.12 277.948 1326.11 285.643C1326.11 291.456 1326.46 293.103 1328.51 296.781C1334.89 308.244 1350.18 314.506 1364.4 311.483C1393.39 305.322 1397.36 272.218 1370.37 261.747C1364.18 259.349 1356.87 258.501 1351.07 259.51ZM1358.07 263.23C1358.07 264.911 1354.07 267.832 1351.77 267.832C1349.75 267.832 1345.29 264.889 1345.95 263.994C1346.63 263.073 1351.53 261.921 1355.14 261.837C1357.46 261.784 1358.07 262.073 1358.07 263.23ZM1369.97 264.37C1374.79 266.299 1380.58 271.446 1383.08 276.032C1385.66 280.787 1386.19 288.247 1384.27 293.033C1383.01 296.187 1382.7 296.317 1380.18 294.714C1377.51 293.012 1372.07 293.31 1369.36 295.307C1366.14 297.673 1365.2 300.97 1366.69 304.625C1368.06 307.97 1367.67 308.422 1362.71 309.226C1354.53 310.55 1344.83 308.371 1338.3 303.743C1331.95 299.25 1327.64 289.897 1328.77 283.076C1329.65 277.745 1334.15 270.574 1338.4 267.743C1342.06 265.3 1342.07 265.298 1343.54 266.854C1348.53 272.138 1358.14 270.825 1360.86 264.486C1361.85 262.192 1362.2 262.002 1364.4 262.535C1365.75 262.861 1368.25 263.686 1369.97 264.37ZM1364.47 273.438C1361.91 274.634 1359.94 277.384 1359.9 279.845C1359.86 282.083 1365.3 286.78 1367.93 286.78C1371.11 286.78 1374.85 284.725 1376.03 282.318C1379.16 275.969 1371.56 270.131 1364.47 273.438ZM1337.39 276.877C1335.05 280.555 1337.49 283.987 1342.17 283.6C1344.08 283.442 1345.38 282.738 1346.28 281.372C1347.47 279.585 1347.45 279.168 1346.06 277.393C1344.11 274.885 1338.86 274.573 1337.39 276.877ZM1372.29 276.321C1373.82 277.609 1373.63 281.148 1371.96 282.558C1367.59 286.234 1361.41 281.586 1364.4 276.877C1365.47 275.197 1370.53 274.84 1372.29 276.321ZM1343.49 279.402C1343.85 280.968 1341.25 282.023 1339.88 280.868C1338.51 279.713 1339.76 277.526 1341.62 277.828C1342.49 277.967 1343.33 278.676 1343.49 279.402ZM1343.85 290.606C1341.44 291.418 1338.92 295.928 1339.75 297.917C1341.79 302.753 1348.2 304.25 1352.26 300.836C1356.2 297.516 1354.85 292.276 1349.61 290.599C1346.75 289.683 1346.58 289.684 1343.85 290.606ZM1350.35 294.034C1352.25 295.631 1352.13 297.082 1349.97 298.907C1347.8 300.732 1346.07 300.828 1344.18 299.232C1342.5 297.818 1342.33 295.028 1343.84 293.753C1345.36 292.477 1348.67 292.621 1350.35 294.034ZM1379.08 296.98C1381.33 298.416 1380.39 300.574 1376.27 303.437C1372.42 306.108 1371.09 306.277 1369.8 304.262C1368.3 301.891 1368.72 299.722 1371.08 297.736C1373.54 295.666 1376.57 295.38 1379.08 296.98Z" fill="white" fill-opacity="0.6"/>
<path fill-rule="evenodd" clip-rule="evenodd" d="M1319.86 43.1249C1314.01 44.1428 1305.45 48.3272 1302.04 51.8371C1296.6 57.4236 1294.9 61.5633 1294.9 69.2583C1294.89 75.0715 1295.25 76.7177 1297.3 80.3966C1303.68 91.8591 1318.97 98.121 1333.19 95.0977C1362.17 88.9367 1366.14 55.8335 1339.15 45.3623C1332.97 42.9642 1325.66 42.1161 1319.86 43.1249ZM1326.85 46.8447C1326.85 48.5265 1322.85 51.4475 1320.55 51.4475C1318.54 51.4475 1314.08 48.5038 1314.73 47.6095C1315.41 46.6886 1320.32 45.5366 1323.93 45.4524C1326.24 45.3986 1326.85 45.6882 1326.85 46.8447ZM1338.75 47.9846C1343.58 49.9143 1349.37 55.0612 1351.86 59.6473C1354.45 64.4024 1354.97 71.8618 1353.06 76.6479C1351.8 79.8016 1351.48 79.932 1348.96 78.329C1346.29 76.6275 1340.85 76.9253 1338.14 78.9217C1334.93 81.2879 1333.98 84.5855 1335.48 88.2401C1336.84 91.5855 1336.45 92.0373 1331.49 92.8406C1323.32 94.1647 1313.62 91.9857 1307.08 87.3579C1300.74 82.8651 1296.43 73.5117 1297.55 66.6913C1298.43 61.3602 1302.94 54.1889 1307.18 51.3581C1310.84 48.9153 1310.86 48.9131 1312.33 50.469C1317.32 55.7532 1326.93 54.4405 1329.65 48.1013C1330.63 45.8071 1330.98 45.6169 1333.19 46.1505C1334.54 46.4756 1337.04 47.301 1338.75 47.9846ZM1333.25 57.053C1330.69 58.249 1328.73 60.9987 1328.69 63.4603C1328.65 65.6984 1334.08 70.3952 1336.71 70.3952C1339.9 70.3952 1343.63 68.3398 1344.82 65.9334C1347.94 59.5844 1340.34 53.7462 1333.25 57.053ZM1306.18 60.4924C1303.84 64.1705 1306.28 67.6023 1310.96 67.215C1312.86 67.0574 1314.16 66.3533 1315.07 64.9875C1316.25 63.1996 1316.23 62.7835 1314.85 61.0085C1312.9 58.5006 1307.64 58.1883 1306.18 60.4924ZM1341.08 59.9361C1342.61 61.2238 1342.42 64.7632 1340.74 66.1729C1336.38 69.8487 1330.19 65.2013 1333.19 60.4924C1334.26 58.8121 1339.32 58.4551 1341.08 59.9361ZM1312.28 63.017C1312.64 64.5828 1310.04 65.6386 1308.67 64.4835C1307.29 63.3285 1308.55 61.1411 1310.41 61.4428C1311.27 61.5822 1312.11 62.2909 1312.28 63.017ZM1312.63 74.2211C1310.23 75.0328 1307.7 79.5431 1308.54 81.5319C1310.57 86.3681 1316.99 87.865 1321.04 84.4506C1324.99 81.131 1323.63 75.8908 1318.39 74.2143C1315.53 73.298 1315.36 73.2987 1312.63 74.2211ZM1319.14 77.6491C1321.03 79.246 1320.92 80.6967 1318.75 82.5217C1316.58 84.3468 1314.86 84.443 1312.96 82.8469C1311.28 81.4334 1311.11 78.6435 1312.63 77.368C1314.14 76.0924 1317.46 76.2356 1319.14 77.6491ZM1347.87 80.5951C1350.12 82.0306 1349.18 84.1891 1345.05 87.0517C1341.2 89.7226 1339.87 89.8924 1338.59 87.8771C1337.08 85.5064 1337.51 83.3372 1339.87 81.3508C1342.33 79.2809 1345.36 78.9952 1347.87 80.5951Z" fill="white" fill-opacity="0.1"/>
<path fill-rule="evenodd" clip-rule="evenodd" d="M1186.78 364.855C1180.94 365.873 1172.37 370.057 1168.96 373.567C1163.52 379.154 1161.82 383.294 1161.82 390.989C1161.81 396.802 1162.17 398.448 1164.22 402.127C1170.6 413.59 1185.89 419.851 1200.11 416.828C1229.1 410.667 1233.07 377.564 1206.07 367.092C1199.89 364.694 1192.58 363.846 1186.78 364.855ZM1193.78 368.575C1193.78 370.257 1189.78 373.178 1187.47 373.178C1185.46 373.178 1181 370.234 1181.66 369.34C1182.33 368.419 1187.24 367.267 1190.85 367.183C1193.17 367.129 1193.78 367.418 1193.78 368.575ZM1205.67 369.715C1210.5 371.645 1216.29 376.791 1218.78 381.378C1221.37 386.133 1221.89 393.592 1219.98 398.378C1218.72 401.532 1218.4 401.662 1215.89 400.059C1213.21 398.358 1207.78 398.656 1205.06 400.652C1201.85 403.018 1200.91 406.316 1202.4 409.971C1203.76 413.316 1203.37 413.768 1198.42 414.571C1190.24 415.895 1180.54 413.716 1174.01 409.088C1167.66 404.595 1163.35 395.242 1164.47 388.422C1165.35 383.09 1169.86 375.919 1174.1 373.088C1177.77 370.646 1177.78 370.643 1179.25 372.199C1184.24 377.483 1193.85 376.171 1196.57 369.832C1197.56 367.537 1197.9 367.347 1200.11 367.881C1201.46 368.206 1203.96 369.031 1205.67 369.715ZM1200.18 378.783C1197.61 379.979 1195.65 382.729 1195.61 385.191C1195.57 387.429 1201 392.126 1203.63 392.126C1206.82 392.126 1210.56 390.07 1211.74 387.664C1214.86 381.315 1207.26 375.476 1200.18 378.783ZM1173.1 382.223C1170.76 385.901 1173.2 389.333 1177.88 388.945C1179.78 388.788 1181.08 388.084 1181.99 386.718C1183.18 384.93 1183.15 384.514 1181.77 382.739C1179.82 380.231 1174.56 379.919 1173.1 382.223ZM1208 381.666C1209.53 382.954 1209.34 386.493 1207.67 387.903C1203.3 391.579 1197.12 386.932 1200.11 382.223C1201.18 380.542 1206.24 380.185 1208 381.666ZM1179.2 384.747C1179.56 386.313 1176.96 387.369 1175.59 386.214C1174.22 385.059 1175.47 382.871 1177.33 383.173C1178.19 383.313 1179.04 384.021 1179.2 384.747ZM1179.56 395.951C1177.15 396.763 1174.63 401.274 1175.46 403.262C1177.49 408.098 1183.91 409.595 1187.96 406.181C1191.91 402.861 1190.55 397.621 1185.32 395.945C1182.45 395.028 1182.29 395.029 1179.56 395.951ZM1186.06 399.379C1187.95 400.976 1187.84 402.427 1185.67 404.252C1183.5 406.077 1181.78 406.173 1179.88 404.577C1178.21 403.164 1178.04 400.374 1179.55 399.098C1181.07 397.823 1184.38 397.966 1186.06 399.379ZM1214.79 402.325C1217.04 403.761 1216.1 405.919 1211.97 408.782C1208.12 411.453 1206.79 411.623 1205.51 409.607C1204 407.237 1204.43 405.068 1206.79 403.081C1209.25 401.011 1212.28 400.726 1214.79 402.325Z" fill="white" fill-opacity="0.1"/>
<path fill-rule="evenodd" clip-rule="evenodd" d="M740.663 142.227C734.816 143.245 726.256 147.429 722.839 150.939C717.401 156.526 715.705 160.665 715.699 168.36C715.696 174.174 716.049 175.82 718.099 179.499C724.481 190.961 739.769 197.223 753.992 194.2C782.978 188.039 786.946 154.936 759.954 144.464C753.772 142.066 746.458 141.218 740.663 142.227ZM747.657 145.947C747.657 147.629 743.656 150.55 741.354 150.55C739.343 150.55 734.881 147.606 735.538 146.712C736.213 145.791 741.123 144.639 744.731 144.554C747.048 144.501 747.657 144.79 747.657 145.947ZM759.554 147.087C764.383 149.016 770.17 154.163 772.664 158.749C775.249 163.504 775.775 170.964 773.863 175.75C772.601 178.904 772.285 179.034 769.768 177.431C767.095 175.73 761.658 176.027 758.945 178.024C755.73 180.39 754.786 183.688 756.278 187.342C757.645 190.688 757.254 191.139 752.297 191.943C744.123 193.267 734.419 191.088 727.886 186.46C721.543 181.967 717.23 172.614 718.355 165.793C719.235 160.462 723.738 153.291 727.983 150.46C731.647 148.017 731.66 148.015 733.129 149.571C738.12 154.855 747.73 153.543 750.452 147.203C751.438 144.909 751.784 144.719 753.992 145.253C755.339 145.578 757.841 146.403 759.554 147.087ZM754.058 156.155C751.494 157.351 749.533 160.101 749.489 162.562C749.449 164.8 754.885 169.497 757.515 169.497C760.703 169.497 764.437 167.442 765.621 165.035C768.745 158.686 761.144 152.848 754.058 156.155ZM726.98 159.594C724.642 163.273 727.082 166.704 731.76 166.317C733.665 166.159 734.965 165.455 735.87 164.09C737.057 162.302 737.035 161.886 735.652 160.111C733.701 157.603 728.445 157.29 726.98 159.594ZM761.882 159.038C763.412 160.326 763.222 163.865 761.548 165.275C757.18 168.951 750.997 164.303 753.991 159.594C755.059 157.914 760.123 157.557 761.882 159.038ZM733.082 162.119C733.44 163.685 730.842 164.741 729.47 163.586C728.098 162.431 729.352 160.243 731.212 160.545C732.075 160.684 732.916 161.393 733.082 162.119ZM733.437 173.323C731.032 174.135 728.507 178.645 729.343 180.634C731.376 185.47 737.789 186.967 741.845 183.553C745.789 180.233 744.433 174.993 739.196 173.316C736.334 172.4 736.167 172.401 733.437 173.323ZM739.94 176.751C741.836 178.348 741.722 179.799 739.554 181.624C737.386 183.449 735.662 183.545 733.765 181.949C732.086 180.535 731.916 177.746 733.431 176.47C734.947 175.194 738.261 175.338 739.94 176.751ZM768.671 179.697C770.921 181.133 769.98 183.291 765.854 186.154C762.005 188.825 760.674 188.994 759.393 186.979C757.885 184.608 758.31 182.439 760.671 180.453C763.129 178.383 766.162 178.097 768.671 179.697Z" fill="white" fill-opacity="0.15"/>
<path fill-rule="evenodd" clip-rule="evenodd" d="M703.788 302.833C697.611 305.369 691.062 311.553 689.194 316.614C688.501 318.496 686.479 321.508 684.703 323.309C680.128 327.945 677.178 334.23 678.01 337.57C679.438 343.304 687.274 347.084 697.736 347.084C700.065 347.084 703.71 347.724 705.835 348.507C718.364 353.122 734.796 347.256 740.809 336.02C743.759 330.51 743.823 330.417 748.253 325.25C752.438 320.368 754.328 314.967 752.951 311.823C750.714 306.713 743.27 303.443 733.85 303.433C731.406 303.43 727.668 302.786 725.542 302.003C719.656 299.835 710.213 300.194 703.788 302.833ZM712.998 305.819C712.998 308.785 708.476 311.014 705.648 309.441C702.789 307.85 703.541 306.067 707.616 304.77C712.853 303.103 712.998 303.132 712.998 305.819ZM727.124 306.367C734.645 309.687 739.907 317.208 739.907 324.638C739.907 328.737 739.76 328.914 733.119 332.728C725.523 337.092 716.381 340.559 707.806 342.328C702.168 343.491 702.025 343.467 698.828 340.788C693.698 336.493 691.47 331.789 691.47 325.255C691.47 319.184 693.723 313.897 697.639 310.774C699.641 309.178 699.816 309.189 701.688 311.012C704.065 313.327 710.393 313.566 713.792 311.466C715.084 310.668 716.455 308.537 716.84 306.73C717.474 303.751 717.806 303.499 720.382 304.044C721.945 304.375 724.979 305.42 727.124 306.367ZM747.009 310.158C748.445 311.347 749.593 313.386 749.591 314.743C749.587 316.991 746.033 323.357 744.782 323.357C744.486 323.357 743.692 321.426 743.018 319.066C742.344 316.706 740.346 313.013 738.576 310.86L735.36 306.944L739.892 307.48C742.436 307.781 745.56 308.956 747.009 310.158ZM703.55 321.039C700.534 322.901 700.297 328.071 703.126 330.328C709.971 335.79 719.385 327.195 712.66 321.624C709.718 319.188 706.845 319.004 703.55 321.039ZM726.812 320.879C723.956 322.127 722.876 326.492 724.892 328.634C725.599 329.385 727.824 330 729.837 330C732.695 330 733.763 329.481 734.721 327.628C737.222 322.79 732.214 318.517 726.812 320.879ZM710.228 323.897C712.545 325.94 710.565 329.286 707.285 328.872C704.297 328.495 703.562 325.287 706.089 323.657C708.472 322.122 708.196 322.106 710.228 323.897ZM731.296 325.255C731.296 327.22 728.699 327.875 727.529 326.204C726.628 324.919 727.843 323.357 729.745 323.357C730.599 323.357 731.296 324.211 731.296 325.255ZM693.04 339.999L695.885 343.287L692.332 343.283C690.377 343.282 687.205 342.434 685.281 341.4C682.364 339.831 681.782 338.944 681.782 336.058C681.782 334.146 682.845 331.081 684.156 329.211L686.53 325.825L688.362 331.267C689.37 334.261 691.475 338.19 693.04 339.999ZM732.122 340.923C727.007 345.006 721.212 347.084 714.936 347.084C708.585 347.084 709.401 345.883 717.55 343.244C721.854 341.849 727.798 339.435 730.758 337.878C737.7 334.227 738.44 335.879 732.122 340.923Z" fill="white" fill-opacity="0.1"/>
<path fill-rule="evenodd" clip-rule="evenodd" d="M1484.43 133.215C1478.25 135.751 1471.7 141.935 1469.83 146.996C1469.14 148.878 1467.12 151.89 1465.34 153.691C1460.77 158.327 1457.82 164.612 1458.65 167.952C1460.08 173.686 1467.91 177.465 1478.37 177.465C1480.7 177.465 1484.35 178.106 1486.47 178.889C1499 183.504 1515.43 177.638 1521.45 166.402C1524.4 160.892 1524.46 160.799 1528.89 155.632C1533.08 150.75 1534.97 145.349 1533.59 142.205C1531.35 137.095 1523.91 133.825 1514.49 133.815C1512.04 133.812 1508.31 133.168 1506.18 132.385C1500.29 130.217 1490.85 130.576 1484.43 133.215ZM1493.64 136.201C1493.64 139.167 1489.11 141.396 1486.29 139.823C1483.43 138.232 1484.18 136.449 1488.25 135.152C1493.49 133.485 1493.64 133.514 1493.64 136.201ZM1507.76 136.749C1515.28 140.069 1520.55 147.59 1520.55 155.02C1520.55 159.119 1520.4 159.296 1513.76 163.11C1506.16 167.474 1497.02 170.941 1488.44 172.71C1482.81 173.873 1482.66 173.849 1479.47 171.17C1474.34 166.875 1472.11 162.17 1472.11 155.637C1472.11 149.566 1474.36 144.279 1478.28 141.156C1480.28 139.56 1480.45 139.571 1482.33 141.394C1484.7 143.709 1491.03 143.948 1494.43 141.848C1495.72 141.05 1497.09 138.919 1497.48 137.112C1498.11 134.132 1498.44 133.881 1501.02 134.426C1502.58 134.757 1505.62 135.802 1507.76 136.749ZM1527.65 140.54C1529.08 141.729 1530.23 143.768 1530.23 145.125C1530.23 147.373 1526.67 153.739 1525.42 153.739C1525.12 153.739 1524.33 151.808 1523.66 149.448C1522.98 147.088 1520.98 143.395 1519.21 141.242L1516 137.326L1520.53 137.862C1523.07 138.163 1526.2 139.338 1527.65 140.54ZM1484.19 151.42C1481.17 153.283 1480.94 158.453 1483.76 160.71C1490.61 166.172 1500.02 157.577 1493.3 152.006C1490.36 149.57 1487.48 149.386 1484.19 151.42ZM1507.45 151.261C1504.59 152.509 1503.51 156.874 1505.53 159.016C1506.24 159.767 1508.46 160.382 1510.47 160.382C1513.33 160.382 1514.4 159.863 1515.36 158.01C1517.86 153.171 1512.85 148.899 1507.45 151.261ZM1490.87 154.279C1493.18 156.322 1491.2 159.668 1487.92 159.254C1484.93 158.877 1484.2 155.668 1486.73 154.039C1489.11 152.504 1488.83 152.488 1490.87 154.279ZM1511.93 155.637C1511.93 157.602 1509.34 158.257 1508.17 156.586C1507.27 155.301 1508.48 153.739 1510.38 153.739C1511.24 153.739 1511.93 154.593 1511.93 155.637ZM1473.68 170.381L1476.52 173.669L1472.97 173.665C1471.02 173.664 1467.84 172.816 1465.92 171.782C1463 170.213 1462.42 169.326 1462.42 166.44C1462.42 164.528 1463.48 161.463 1464.79 159.593L1467.17 156.207L1469 161.648C1470.01 164.643 1472.11 168.572 1473.68 170.381ZM1512.76 171.305C1507.64 175.388 1501.85 177.465 1495.57 177.465C1489.22 177.465 1490.04 176.265 1498.19 173.626C1502.49 172.231 1508.44 169.817 1511.4 168.26C1518.34 164.609 1519.08 166.261 1512.76 171.305Z" fill="white" fill-opacity="0.1"/>
<path fill-rule="evenodd" clip-rule="evenodd" d="M1105.54 22.175C1099.36 24.7109 1092.81 30.895 1090.94 35.9563C1090.25 37.8383 1088.23 40.8506 1086.45 42.6509C1081.88 47.2871 1078.93 53.5727 1079.76 56.9124C1081.19 62.6466 1089.02 66.4258 1099.48 66.4258C1101.81 66.4258 1105.46 67.0664 1107.58 67.8493C1120.11 72.4646 1136.54 66.5985 1142.56 55.3626C1145.51 49.8524 1145.57 49.7594 1150 44.5927C1154.19 39.7108 1156.08 34.3097 1154.7 31.1655C1152.46 26.0557 1145.02 22.7853 1135.6 22.7749C1133.15 22.772 1129.42 22.1285 1127.29 21.3456C1121.41 19.177 1111.96 19.5367 1105.54 22.175ZM1114.75 25.1617C1114.75 28.1275 1110.22 30.3559 1107.4 28.7833C1104.54 27.1927 1105.29 25.4094 1109.36 24.1121C1114.6 22.4455 1114.75 22.474 1114.75 25.1617ZM1128.87 25.7093C1136.39 29.0291 1141.66 36.5504 1141.66 43.9806C1141.66 48.0795 1141.51 48.2561 1134.87 52.0703C1127.27 56.4341 1118.13 59.901 1109.56 61.67C1103.92 62.8336 1103.77 62.8089 1100.58 60.1307C1095.45 55.8352 1093.22 51.1308 1093.22 44.5975C1093.22 38.5263 1095.47 33.2392 1099.39 30.1168C1101.39 28.5204 1101.56 28.5309 1103.44 30.354C1105.81 32.6697 1112.14 32.9079 1115.54 30.8086C1116.83 30.0105 1118.2 27.8789 1118.59 26.0719C1119.22 23.0928 1119.55 22.8413 1122.13 23.386C1123.69 23.7173 1126.73 24.7622 1128.87 25.7093ZM1148.76 29.4999C1150.19 30.689 1151.34 32.7286 1151.34 34.0857C1151.34 36.3331 1147.78 42.6993 1146.53 42.6993C1146.24 42.6993 1145.44 40.768 1144.77 38.4087C1144.09 36.0484 1142.09 32.3556 1140.32 30.2022L1137.11 26.2864L1141.64 26.8226C1144.18 27.1234 1147.31 28.2984 1148.76 29.4999ZM1105.3 40.3808C1102.28 42.2429 1102.05 47.4133 1104.87 49.6702C1111.72 55.132 1121.13 46.5373 1114.41 40.9664C1111.47 38.5301 1108.59 38.346 1105.3 40.3808ZM1128.56 40.2214C1125.71 41.4694 1124.62 45.8341 1126.64 47.9761C1127.35 48.7278 1129.57 49.3427 1131.59 49.3427C1134.44 49.3427 1135.51 48.8236 1136.47 46.9701C1138.97 42.1318 1133.96 37.8592 1128.56 40.2214ZM1111.98 43.2394C1114.29 45.2827 1112.31 48.6281 1109.03 48.2143C1106.05 47.8375 1105.31 44.6288 1107.84 42.9992C1110.22 41.4646 1109.94 41.4485 1111.98 43.2394ZM1133.05 44.5975C1133.05 46.562 1130.45 47.2169 1129.28 45.5465C1128.38 44.2615 1129.59 42.6993 1131.49 42.6993C1132.35 42.6993 1133.05 43.5535 1133.05 44.5975ZM1094.79 59.3411L1097.63 62.6295L1094.08 62.6257C1092.13 62.6238 1088.95 61.7763 1087.03 60.7419C1084.11 59.1731 1083.53 58.2867 1083.53 55.4006C1083.53 53.4882 1084.59 50.4237 1085.9 48.5531L1088.28 45.1669L1090.11 50.6088C1091.12 53.6031 1093.22 57.5322 1094.79 59.3411ZM1133.87 60.2654C1128.76 64.3483 1122.96 66.4258 1116.69 66.4258C1110.33 66.4258 1111.15 65.2252 1119.3 62.5859C1123.6 61.1917 1129.55 58.7773 1132.51 57.2199C1139.45 53.5689 1140.19 55.2212 1133.87 60.2654Z" fill="white" fill-opacity="0.6"/>
<path fill-rule="evenodd" clip-rule="evenodd" d="M134.296 396.161C128.119 398.696 121.57 404.88 119.702 409.942C119.009 411.824 116.987 414.836 115.211 416.636C110.636 421.273 107.686 427.558 108.518 430.898C109.946 436.632 117.782 440.411 128.244 440.411C130.573 440.411 134.217 441.052 136.343 441.835C148.871 446.45 165.304 440.584 171.317 429.348C174.267 423.838 174.331 423.745 178.761 418.578C182.946 413.696 184.836 408.295 183.459 405.151C181.222 400.041 173.778 396.771 164.357 396.76C161.914 396.757 158.176 396.114 156.05 395.331C150.164 393.162 140.721 393.522 134.296 396.161ZM143.506 399.147C143.506 402.113 138.984 404.341 136.156 402.769C133.297 401.178 134.048 399.395 138.124 398.098C143.361 396.431 143.506 396.459 143.506 399.147ZM157.632 399.695C165.153 403.015 170.415 410.536 170.415 417.966C170.415 422.065 170.268 422.242 163.627 426.056C156.031 430.42 146.889 433.886 138.314 435.656C132.676 436.819 132.533 436.794 129.336 434.116C124.206 429.821 121.978 425.116 121.978 418.583C121.978 412.512 124.231 407.225 128.147 404.102C130.149 402.506 130.324 402.516 132.196 404.339C134.573 406.655 140.901 406.893 144.3 404.794C145.592 403.996 146.963 401.864 147.348 400.057C147.982 397.078 148.314 396.827 150.89 397.372C152.453 397.703 155.487 398.748 157.632 399.695ZM177.517 403.485C178.953 404.675 180.101 406.714 180.099 408.071C180.095 410.319 176.541 416.685 175.29 416.685C174.994 416.685 174.2 414.753 173.526 412.394C172.852 410.034 170.853 406.341 169.084 404.188L165.868 400.272L170.4 400.808C172.944 401.109 176.068 402.284 177.517 403.485ZM134.058 414.366C131.042 416.228 130.805 421.399 133.634 423.656C140.479 429.117 149.893 420.523 143.168 414.952C140.226 412.516 137.353 412.331 134.058 414.366ZM157.32 414.207C154.464 415.455 153.384 419.82 155.4 421.962C156.107 422.713 158.332 423.328 160.345 423.328C163.203 423.328 164.271 422.809 165.229 420.956C167.73 416.117 162.722 411.845 157.32 414.207ZM140.736 417.225C143.052 419.268 141.073 422.614 137.793 422.2C134.805 421.823 134.07 418.614 136.597 416.985C138.979 415.45 138.704 415.434 140.736 417.225ZM161.804 418.583C161.804 420.547 159.207 421.202 158.037 419.532C157.136 418.247 158.351 416.685 160.253 416.685C161.107 416.685 161.804 417.539 161.804 418.583ZM123.548 433.327L126.393 436.615L122.84 436.611C120.885 436.609 117.713 435.762 115.789 434.727C112.872 433.159 112.29 432.272 112.29 429.386C112.29 427.474 113.353 424.409 114.664 422.539L117.038 419.152L118.87 424.594C119.878 427.589 121.983 431.518 123.548 433.327ZM162.63 434.251C157.515 438.334 151.72 440.411 145.444 440.411C139.092 440.411 139.909 439.211 148.058 436.571C152.362 435.177 158.306 432.763 161.266 431.205C168.208 427.554 168.948 429.207 162.63 434.251Z" fill="white" fill-opacity="0.6"/>
<path fill-rule="evenodd" clip-rule="evenodd" d="M1392.93 395.154C1386.76 397.69 1380.21 403.874 1378.34 408.936C1377.65 410.818 1375.62 413.83 1373.85 415.63C1369.27 420.266 1366.32 426.552 1367.15 429.892C1368.58 435.626 1376.42 439.405 1386.88 439.405C1389.21 439.405 1392.85 440.046 1394.98 440.829C1407.51 445.444 1423.94 439.578 1429.95 428.342C1432.9 422.832 1432.97 422.739 1437.4 417.572C1441.58 412.69 1443.47 407.289 1442.1 404.145C1439.86 399.035 1432.41 395.765 1422.99 395.754C1420.55 395.751 1416.81 395.108 1414.69 394.325C1408.8 392.156 1399.36 392.516 1392.93 395.154ZM1402.14 398.141C1402.14 401.107 1397.62 403.335 1394.79 401.763C1391.93 400.172 1392.68 398.389 1396.76 397.091C1402 395.425 1402.14 395.453 1402.14 398.141ZM1416.27 398.689C1423.79 402.008 1429.05 409.53 1429.05 416.96C1429.05 421.059 1428.9 421.235 1422.26 425.05C1414.67 429.413 1405.52 432.88 1396.95 434.649C1391.31 435.813 1391.17 435.788 1387.97 433.11C1382.84 428.815 1380.61 424.11 1380.61 417.577C1380.61 411.506 1382.87 406.218 1386.78 403.096C1388.79 401.5 1388.96 401.51 1390.83 403.333C1393.21 405.649 1399.54 405.887 1402.94 403.788C1404.23 402.99 1405.6 400.858 1405.98 399.051C1406.62 396.072 1406.95 395.821 1409.53 396.365C1411.09 396.697 1414.12 397.742 1416.27 398.689ZM1436.15 402.479C1437.59 403.668 1438.74 405.708 1438.73 407.065C1438.73 409.312 1435.18 415.679 1433.93 415.679C1433.63 415.679 1432.84 413.747 1432.16 411.388C1431.49 409.028 1429.49 405.335 1427.72 403.182L1424.5 399.266L1429.04 399.802C1431.58 400.103 1434.7 401.278 1436.15 402.479ZM1392.69 413.36C1389.68 415.222 1389.44 420.393 1392.27 422.649C1399.12 428.111 1408.53 419.517 1401.8 413.946C1398.86 411.509 1395.99 411.325 1392.69 413.36ZM1415.96 413.201C1413.1 414.449 1412.02 418.813 1414.04 420.955C1414.74 421.707 1416.97 422.322 1418.98 422.322C1421.84 422.322 1422.91 421.803 1423.87 419.949C1426.37 415.111 1421.36 410.838 1415.96 413.201ZM1399.37 416.219C1401.69 418.262 1399.71 421.607 1396.43 421.194C1393.44 420.817 1392.71 417.608 1395.23 415.979C1397.62 414.444 1397.34 414.428 1399.37 416.219ZM1420.44 417.577C1420.44 419.541 1417.84 420.196 1416.67 418.526C1415.77 417.241 1416.99 415.679 1418.89 415.679C1419.74 415.679 1420.44 416.533 1420.44 417.577ZM1382.18 432.32L1385.03 435.609L1381.48 435.605C1379.52 435.603 1376.35 434.756 1374.43 433.721C1371.51 432.152 1370.93 431.266 1370.93 428.38C1370.93 426.468 1371.99 423.403 1373.3 421.532L1375.67 418.146L1377.51 423.588C1378.51 426.582 1380.62 430.511 1382.18 432.32ZM1421.27 433.245C1416.15 437.328 1410.36 439.405 1404.08 439.405C1397.73 439.405 1398.55 438.204 1406.69 435.565C1411 434.171 1416.94 431.757 1419.9 430.199C1426.84 426.548 1427.58 428.201 1421.27 433.245Z" fill="white" fill-opacity="0.1"/>
<path fill-rule="evenodd" clip-rule="evenodd" d="M1015.76 62.2717C1012.76 57.0668 1011.33 55.7621 1005.61 53.0336L1001.04 50.8511L1006.52 48.1374C1011.86 45.4939 1012.07 45.3082 1014.75 40.9754C1016.26 38.529 1017.71 36.329 1017.97 36.0854C1018.23 35.8425 1019.66 37.7068 1021.15 40.229C1024.02 45.0885 1024.78 45.7403 1030.96 48.7065C1033.11 49.7389 1034.65 50.7798 1034.38 51.0187C1034.11 51.2583 1031.69 52.58 1029 53.9556C1024.24 56.3929 1024.04 56.5866 1021.14 61.446L1018.16 66.434L1015.76 62.2717Z" fill="white" fill-opacity="0.5"/>
<path fill-rule="evenodd" clip-rule="evenodd" d="M851.072 311.874C848.075 306.669 846.642 305.364 840.926 302.636L836.354 300.453L841.832 297.739C847.169 295.096 847.382 294.91 850.059 290.577C851.57 288.131 853.019 285.931 853.279 285.687C853.538 285.444 854.971 287.309 856.462 289.831C859.334 294.69 860.089 295.342 866.271 298.308C868.422 299.341 869.961 300.382 869.691 300.621C869.421 300.86 867.002 302.182 864.315 303.557C859.557 305.995 859.353 306.189 856.449 311.048L853.469 316.036L851.072 311.874Z" fill="white" fill-opacity="0.8"/>
<path fill-rule="evenodd" clip-rule="evenodd" d="M1316.07 402.034C1313.07 396.829 1311.64 395.524 1305.93 392.796L1301.35 390.613L1306.83 387.9C1312.17 385.256 1312.38 385.07 1315.06 380.738C1316.57 378.291 1318.02 376.091 1318.28 375.848C1318.54 375.605 1319.97 377.469 1321.46 379.991C1324.33 384.851 1325.09 385.503 1331.27 388.469C1333.42 389.501 1334.96 390.542 1334.69 390.781C1334.42 391.021 1332 392.342 1329.32 393.718C1324.56 396.155 1324.35 396.349 1321.45 401.208L1318.47 406.196L1316.07 402.034Z" fill="white" fill-opacity="0.5"/>
<path fill-rule="evenodd" clip-rule="evenodd" d="M1033.06 199.53C1030.06 194.326 1028.63 193.021 1022.91 190.292L1018.34 188.11L1023.82 185.396C1029.15 182.753 1029.37 182.567 1032.04 178.234C1033.55 175.788 1035 173.588 1035.26 173.344C1035.52 173.101 1036.95 174.966 1038.45 177.488C1041.32 182.347 1042.07 182.999 1048.25 185.965C1050.41 186.998 1051.95 188.039 1051.68 188.278C1051.4 188.517 1048.99 189.839 1046.3 191.214C1041.54 193.652 1041.34 193.845 1038.43 198.705L1035.45 203.693L1033.06 199.53Z" fill="white" fill-opacity="0.5"/>
<path fill-rule="evenodd" clip-rule="evenodd" d="M1223.5 67.966C1220.51 62.7611 1219.07 61.4564 1213.36 58.728L1208.78 56.5454L1214.26 53.8317C1219.6 51.1883 1219.81 51.0025 1222.49 46.6698C1224 44.2234 1225.45 42.0233 1225.71 41.7798C1225.97 41.5368 1227.4 43.4011 1228.89 45.9234C1231.76 50.7828 1232.52 51.4346 1238.7 54.4009C1240.85 55.4332 1242.39 56.4741 1242.12 56.7131C1241.85 56.9526 1239.43 58.2744 1236.75 59.6499C1231.99 62.0873 1231.78 62.2809 1228.88 67.1403L1225.9 72.1283L1223.5 67.966Z" fill="white" fill-opacity="0.5"/>
<path fill-rule="evenodd" clip-rule="evenodd" d="M411.905 98.3359C408.908 93.131 407.475 91.8263 401.759 89.0978L397.188 86.9153L402.666 84.2016C408.003 81.5581 408.216 81.3724 410.893 77.0396C412.403 74.5932 413.852 72.3932 414.112 72.1496C414.372 71.9067 415.804 73.771 417.295 76.2932C420.168 81.1527 420.922 81.8045 427.104 84.7707C429.255 85.8031 430.795 86.844 430.525 87.0829C430.254 87.3225 427.835 88.6442 425.149 90.0198C420.39 92.4571 420.186 92.6508 417.283 97.5102L414.302 102.498L411.905 98.3359Z" fill="white" fill-opacity="0.5"/>
<path fill-rule="evenodd" clip-rule="evenodd" d="M1376.35 179.955C1373.35 174.75 1371.92 173.445 1366.2 170.717L1361.63 168.534L1367.11 165.82C1372.45 163.177 1372.66 162.991 1375.34 158.658C1376.85 156.212 1378.3 154.012 1378.56 153.768C1378.82 153.525 1380.25 155.39 1381.74 157.912C1384.61 162.771 1385.37 163.423 1391.55 166.39C1393.7 167.422 1395.24 168.463 1394.97 168.702C1394.7 168.941 1392.28 170.263 1389.59 171.639C1384.83 174.076 1384.63 174.27 1381.73 179.129L1378.75 184.117L1376.35 179.955Z" fill="white" fill-opacity="0.4"/>
<path fill-rule="evenodd" clip-rule="evenodd" d="M599.197 277.708C596.2 272.503 594.767 271.198 589.051 268.47L584.479 266.287L589.957 263.573C595.295 260.93 595.507 260.744 598.184 256.411C599.695 253.965 601.144 251.765 601.404 251.521C601.664 251.278 603.096 253.143 604.587 255.665C607.46 260.524 608.214 261.176 614.396 264.142C616.547 265.175 618.087 266.216 617.817 266.455C617.546 266.694 615.127 268.016 612.44 269.391C607.682 271.829 607.478 272.023 604.574 276.882L601.594 281.87L599.197 277.708Z" fill="white" fill-opacity="0.5"/>
<path fill-rule="evenodd" clip-rule="evenodd" d="M756.35 98.3359C753.353 93.131 751.92 91.8263 746.203 89.0978L741.632 86.9153L747.11 84.2016C752.447 81.5581 752.66 81.3724 755.337 77.0396C756.848 74.5932 758.297 72.3932 758.557 72.1496C758.816 71.9067 760.249 73.771 761.739 76.2932C764.612 81.1527 765.367 81.8045 771.548 84.7707C773.7 85.8031 775.239 86.844 774.969 87.0829C774.699 87.3225 772.28 88.6442 769.593 90.0198C764.834 92.4571 764.63 92.6508 761.727 97.5102L758.747 102.498L756.35 98.3359Z" fill="white" fill-opacity="0.8"/>
<path fill-rule="evenodd" clip-rule="evenodd" d="M867.655 20.277C861.477 22.8129 854.929 28.9969 853.061 34.0582C852.368 35.9402 850.345 38.9525 848.569 40.7529C843.995 45.389 841.044 51.6746 841.876 55.0144C843.305 60.7486 851.141 64.5277 861.602 64.5277C863.932 64.5277 867.576 65.1683 869.702 65.9513C882.23 70.5665 898.662 64.7004 904.676 53.4645C907.625 47.9543 907.69 47.8613 912.119 42.6946C916.304 37.8127 918.195 32.4116 916.818 29.2674C914.581 24.1577 907.137 20.8872 897.716 20.8768C895.273 20.8739 891.535 20.2305 889.409 19.4475C883.523 17.2789 874.08 17.6386 867.655 20.277ZM876.864 23.2637C876.864 26.2295 872.343 28.4578 869.515 26.8853C866.656 25.2946 867.407 23.5114 871.482 22.214C876.72 20.5475 876.864 20.5759 876.864 23.2637ZM890.991 23.8113C898.512 27.1311 903.774 34.6523 903.774 42.0825C903.774 46.1815 903.627 46.358 896.985 50.1723C889.389 54.536 880.248 58.0029 871.673 59.772C866.035 60.9355 865.892 60.9108 862.695 58.2326C857.565 53.9372 855.337 49.2327 855.337 42.6994C855.337 36.6283 857.59 31.3411 861.505 28.2187C863.507 26.6224 863.683 26.6328 865.555 28.4559C867.931 30.7716 874.26 31.0099 877.659 28.9105C878.95 28.1124 880.322 25.9808 880.707 24.1738C881.341 21.1947 881.673 20.9432 884.248 21.488C885.811 21.8192 888.846 22.8641 890.991 23.8113ZM910.876 27.6018C912.312 28.791 913.46 30.8305 913.457 32.1876C913.454 34.435 909.9 40.8013 908.649 40.8013C908.353 40.8013 907.559 38.8699 906.885 36.5106C906.211 34.1503 904.212 30.4575 902.443 28.3041L899.226 24.3883L903.759 24.9245C906.303 25.2254 909.426 26.4003 910.876 27.6018ZM867.417 38.4827C864.401 40.3448 864.164 45.5152 866.993 47.7721C873.838 53.2339 883.252 44.6393 876.526 39.0683C873.585 36.6321 870.712 36.448 867.417 38.4827ZM890.679 38.3233C887.823 39.5713 886.742 43.936 888.759 46.078C889.466 46.8297 891.691 47.4447 893.703 47.4447C896.561 47.4447 897.63 46.9255 898.588 45.072C901.089 40.2337 896.081 35.9611 890.679 38.3233ZM874.095 41.3413C876.411 43.3846 874.432 46.73 871.152 46.3162C868.164 45.9395 867.429 42.7307 869.956 41.1012C872.338 39.5666 872.063 39.5504 874.095 41.3413ZM895.163 42.6994C895.163 44.6639 892.566 45.3188 891.396 43.6484C890.495 42.3634 891.71 40.8013 893.612 40.8013C894.466 40.8013 895.163 41.6554 895.163 42.6994ZM856.907 57.443L859.752 60.7315L856.199 60.7277C854.244 60.7258 851.072 59.8783 849.147 58.8438C846.23 57.275 845.649 56.3886 845.649 53.5025C845.649 51.5902 846.712 48.5257 848.023 46.6551L850.397 43.2688L852.229 48.7107C853.237 51.705 855.342 55.6341 856.907 57.443ZM895.989 58.3674C890.874 62.4502 885.078 64.5277 878.803 64.5277C872.451 64.5277 873.268 63.3271 881.416 60.6878C885.721 59.2936 891.665 56.8792 894.625 55.3218C901.566 51.6708 902.307 53.3231 895.989 58.3674Z" fill="white" fill-opacity="0.1"/>
<path fill-rule="evenodd" clip-rule="evenodd" d="M570.94 418.574C565.093 419.592 556.533 423.776 553.116 427.286C547.678 432.873 545.982 437.012 545.976 444.707C545.973 450.521 546.327 452.167 548.376 455.846C554.758 467.308 570.046 473.57 584.269 470.547C613.255 464.386 617.224 431.283 590.232 420.811C584.049 418.413 576.735 417.565 570.94 418.574ZM577.934 422.294C577.934 423.976 573.934 426.897 571.631 426.897C569.62 426.897 565.158 423.953 565.815 423.059C566.491 422.138 571.4 420.986 575.008 420.902C577.325 420.848 577.934 421.137 577.934 422.294ZM589.831 423.434C594.66 425.363 600.447 430.51 602.941 435.096C605.527 439.852 606.052 447.311 604.14 452.097C602.879 455.251 602.563 455.381 600.045 453.778C597.372 452.077 591.935 452.374 589.222 454.371C586.007 456.737 585.064 460.035 586.555 463.689C587.922 467.035 587.531 467.486 582.574 468.29C574.4 469.614 564.696 467.435 558.163 462.807C551.82 458.314 547.507 448.961 548.632 442.14C549.512 436.809 554.015 429.638 558.261 426.807C561.924 424.364 561.937 424.362 563.406 425.918C568.397 431.202 578.007 429.89 580.729 423.55C581.715 421.256 582.061 421.066 584.269 421.6C585.616 421.925 588.118 422.75 589.831 423.434ZM584.335 432.502C581.771 433.698 579.81 436.448 579.766 438.909C579.726 441.148 585.163 445.844 587.793 445.844C590.98 445.844 594.714 443.789 595.898 441.383C599.022 435.034 591.421 429.195 584.335 432.502ZM557.258 435.941C554.919 439.62 557.359 443.051 562.037 442.664C563.943 442.507 565.242 441.802 566.147 440.437C567.334 438.649 567.312 438.233 565.93 436.458C563.978 433.95 558.722 433.637 557.258 435.941ZM592.159 435.385C593.689 436.673 593.499 440.212 591.825 441.622C587.458 445.298 581.274 440.65 584.268 435.941C585.336 434.261 590.4 433.904 592.159 435.385ZM563.359 438.466C563.717 440.032 561.119 441.088 559.747 439.933C558.375 438.778 559.629 436.59 561.489 436.892C562.352 437.031 563.193 437.74 563.359 438.466ZM563.714 449.67C561.309 450.482 558.784 454.992 559.62 456.981C561.653 461.817 568.066 463.314 572.122 459.9C576.067 456.58 574.711 451.34 569.473 449.663C566.611 448.747 566.444 448.748 563.714 449.67ZM570.217 453.098C572.113 454.695 571.999 456.146 569.831 457.971C567.663 459.796 565.939 459.892 564.042 458.296C562.363 456.883 562.193 454.093 563.708 452.817C565.224 451.542 568.538 451.685 570.217 453.098ZM598.949 456.044C601.199 457.48 600.257 459.638 596.131 462.501C592.283 465.172 590.951 465.342 589.67 463.326C588.163 460.956 588.588 458.786 590.948 456.8C593.406 454.73 596.439 454.444 598.949 456.044Z" fill="white" fill-opacity="0.1"/>
<path fill-rule="evenodd" clip-rule="evenodd" d="M209.344 101.452C203.497 102.47 194.937 106.654 191.52 110.164C186.082 115.751 184.386 119.89 184.381 127.585C184.377 133.399 184.731 135.045 186.78 138.724C193.163 150.186 208.45 156.448 222.674 153.425C251.659 147.264 255.628 114.161 228.636 103.689C222.453 101.291 215.14 100.443 209.344 101.452ZM216.338 105.172C216.338 106.854 212.338 109.775 210.036 109.775C208.024 109.775 203.562 106.831 204.22 105.936C204.895 105.016 209.804 103.864 213.412 103.779C215.729 103.726 216.338 104.015 216.338 105.172ZM228.235 106.312C233.065 108.241 238.851 113.388 241.345 117.974C243.931 122.729 244.456 130.189 242.544 134.975C241.283 138.129 240.967 138.259 238.449 136.656C235.776 134.955 230.339 135.252 227.626 137.249C224.411 139.615 223.468 142.913 224.96 146.567C226.326 149.913 225.936 150.364 220.978 151.168C212.804 152.492 203.1 150.313 196.568 145.685C190.225 141.192 185.911 131.839 187.037 125.018C187.916 119.687 192.42 112.516 196.665 109.685C200.328 107.242 200.341 107.24 201.81 108.796C206.802 114.08 216.411 112.768 219.134 106.428C220.119 104.134 220.465 103.944 222.674 104.478C224.021 104.803 226.523 105.628 228.235 106.312ZM222.739 115.38C220.175 116.576 218.214 119.326 218.17 121.787C218.131 124.025 223.567 128.722 226.197 128.722C229.384 128.722 233.119 126.667 234.302 124.26C237.427 117.911 229.825 112.073 222.739 115.38ZM195.662 118.819C193.324 122.498 195.764 125.929 200.442 125.542C202.347 125.384 203.646 124.68 204.552 123.315C205.738 121.527 205.716 121.111 204.334 119.336C202.382 116.828 197.127 116.515 195.662 118.819ZM230.563 118.263C232.093 119.551 231.903 123.09 230.229 124.5C225.862 128.176 219.678 123.528 222.672 118.819C223.741 117.139 228.804 116.782 230.563 118.263ZM201.763 121.344C202.122 122.91 199.523 123.966 198.151 122.811C196.779 121.655 198.033 119.468 199.893 119.77C200.756 119.909 201.598 120.618 201.763 121.344ZM202.118 132.548C199.713 133.36 197.188 137.87 198.024 139.859C200.057 144.695 206.47 146.192 210.526 142.778C214.471 139.458 213.115 134.218 207.878 132.541C205.015 131.625 204.848 131.626 202.118 132.548ZM208.621 135.976C210.517 137.573 210.403 139.024 208.235 140.849C206.067 142.674 204.344 142.77 202.447 141.174C200.768 139.76 200.597 136.971 202.113 135.695C203.628 134.419 206.942 134.563 208.621 135.976ZM237.353 138.922C239.603 140.358 238.661 142.516 234.536 145.379C230.687 148.05 229.355 148.219 228.074 146.204C226.567 143.833 226.992 141.664 229.352 139.678C231.81 137.608 234.844 137.322 237.353 138.922Z" fill="white" fill-opacity="0.15"/>
<path fill-rule="evenodd" clip-rule="evenodd" d="M341.619 286.447C335.441 288.983 328.893 295.167 327.025 300.229C326.332 302.111 324.309 305.123 322.533 306.923C317.959 311.559 315.008 317.845 315.84 321.185C317.269 326.919 325.105 330.698 335.566 330.698C337.896 330.698 341.54 331.339 343.666 332.122C356.194 336.737 372.626 330.871 378.64 319.635C381.589 314.125 381.654 314.032 386.083 308.865C390.268 303.983 392.159 298.582 390.782 295.438C388.545 290.328 381.101 287.058 371.68 287.047C369.237 287.044 365.499 286.401 363.373 285.618C357.487 283.449 348.044 283.809 341.619 286.447ZM350.828 289.434C350.828 292.4 346.306 294.628 343.479 293.056C340.62 291.465 341.371 289.682 345.446 288.384C350.684 286.718 350.828 286.746 350.828 289.434ZM364.955 289.982C372.476 293.301 377.738 300.823 377.738 308.253C377.738 312.352 377.591 312.528 370.949 316.343C363.353 320.706 354.211 324.173 345.637 325.942C339.999 327.106 339.856 327.081 336.659 324.403C331.529 320.107 329.301 315.403 329.301 308.87C329.301 302.799 331.553 297.511 335.469 294.389C337.471 292.793 337.647 292.803 339.519 294.626C341.895 296.942 348.224 297.18 351.623 295.081C352.914 294.283 354.286 292.151 354.671 290.344C355.305 287.365 355.637 287.114 358.212 287.658C359.775 287.989 362.81 289.034 364.955 289.982ZM384.84 293.772C386.276 294.961 387.423 297.001 387.421 298.358C387.418 300.605 383.864 306.972 382.613 306.972C382.317 306.972 381.523 305.04 380.849 302.681C380.175 300.321 378.176 296.628 376.407 294.474L373.19 290.559L377.723 291.095C380.267 291.396 383.39 292.571 384.84 293.772ZM341.381 304.653C338.365 306.515 338.128 311.686 340.957 313.942C347.802 319.404 357.216 310.81 350.49 305.239C347.549 302.802 344.676 302.618 341.381 304.653ZM364.643 304.494C361.787 305.742 360.706 310.106 362.722 312.248C363.43 313 365.655 313.615 367.667 313.615C370.525 313.615 371.594 313.096 372.552 311.242C375.053 306.404 370.045 302.131 364.643 304.494ZM348.059 307.512C350.375 309.555 348.396 312.9 345.116 312.487C342.128 312.11 341.393 308.901 343.92 307.271C346.302 305.737 346.027 305.721 348.059 307.512ZM369.127 308.87C369.127 310.834 366.53 311.489 365.36 309.819C364.459 308.534 365.674 306.972 367.576 306.972C368.43 306.972 369.127 307.826 369.127 308.87ZM330.871 323.613L333.716 326.902L330.163 326.898C328.208 326.896 325.036 326.049 323.111 325.014C320.194 323.445 319.613 322.559 319.613 319.673C319.613 317.76 320.676 314.696 321.987 312.825L324.361 309.439L326.193 314.881C327.201 317.875 329.306 321.804 330.871 323.613ZM369.953 324.538C364.838 328.621 359.042 330.698 352.767 330.698C346.415 330.698 347.232 329.497 355.38 326.858C359.685 325.464 365.629 323.05 368.589 321.492C375.53 317.841 376.271 319.493 369.953 324.538Z" fill="white" fill-opacity="0.1"/>
<path fill-rule="evenodd" clip-rule="evenodd" d="M878.623 154.963C872.446 157.499 865.897 163.683 864.03 168.744C863.336 170.626 861.314 173.638 859.538 175.439C854.963 180.075 852.013 186.361 852.845 189.7C854.273 195.434 862.109 199.214 872.571 199.214C874.9 199.214 878.545 199.854 880.671 200.637C893.199 205.252 909.631 199.386 915.645 188.15C918.594 182.64 918.659 182.547 923.088 177.381C927.273 172.499 929.163 167.098 927.786 163.953C925.55 158.844 918.105 155.573 908.685 155.563C906.241 155.56 902.503 154.916 900.377 154.133C894.491 151.965 885.048 152.325 878.623 154.963ZM887.833 157.95C887.833 160.915 883.311 163.144 880.483 161.571C877.624 159.981 878.376 158.197 882.451 156.9C887.689 155.233 887.833 155.262 887.833 157.95ZM901.959 158.497C909.48 161.817 914.743 169.338 914.743 176.768C914.743 180.867 914.595 181.044 907.954 184.858C900.358 189.222 891.216 192.689 882.641 194.458C877.003 195.621 876.86 195.597 873.663 192.919C868.533 188.623 866.305 183.919 866.305 177.385C866.305 171.314 868.558 166.027 872.474 162.905C874.476 161.308 874.651 161.319 876.523 163.142C878.9 165.458 885.228 165.696 888.627 163.596C889.919 162.798 891.29 160.667 891.676 158.86C892.31 155.881 892.641 155.629 895.217 156.174C896.78 156.505 899.814 157.55 901.959 158.497ZM921.845 162.288C923.281 163.477 924.428 165.516 924.426 166.874C924.423 169.121 920.868 175.487 919.618 175.487C919.322 175.487 918.527 173.556 917.853 171.197C917.18 168.836 915.181 165.143 913.411 162.99L910.195 159.074L914.728 159.61C917.271 159.911 920.395 161.086 921.845 162.288ZM878.385 173.169C875.369 175.031 875.133 180.201 877.961 182.458C884.806 187.92 894.22 179.325 887.495 173.754C884.553 171.318 881.68 171.134 878.385 173.169ZM901.647 173.009C898.792 174.257 897.711 178.622 899.727 180.764C900.434 181.516 902.659 182.131 904.672 182.131C907.53 182.131 908.599 181.611 909.557 179.758C912.057 174.92 907.05 170.647 901.647 173.009ZM885.063 176.027C887.38 178.071 885.4 181.416 882.12 181.002C879.132 180.625 878.397 177.417 880.925 175.787C883.307 174.252 883.031 174.236 885.063 176.027ZM906.132 177.385C906.132 179.35 903.534 180.005 902.364 178.334C901.463 177.049 902.678 175.487 904.58 175.487C905.434 175.487 906.132 176.341 906.132 177.385ZM867.875 192.129L870.72 195.417L867.167 195.414C865.213 195.412 862.04 194.564 860.116 193.53C857.199 191.961 856.618 191.074 856.618 188.188C856.618 186.276 857.68 183.212 858.991 181.341L861.365 177.955L863.197 183.397C864.205 186.391 866.31 190.32 867.875 192.129ZM906.957 193.053C901.842 197.136 896.047 199.214 889.771 199.214C883.42 199.214 884.237 198.013 892.385 195.374C896.689 193.98 902.633 191.565 905.593 190.008C912.535 186.357 913.276 188.009 906.957 193.053Z" fill="white" fill-opacity="0.6"/>
<path fill-rule="evenodd" clip-rule="evenodd" d="M516.73 72.3875C510.541 74.7469 503.981 80.5006 502.11 85.2097C501.416 86.9607 499.39 89.7633 497.61 91.4384C493.028 95.7519 490.072 101.6 490.906 104.707C492.337 110.043 500.186 113.559 510.666 113.559C513 113.559 516.651 114.155 518.781 114.883C531.331 119.177 547.792 113.719 553.816 103.265C556.771 98.1387 556.835 98.0522 561.273 93.2451C565.465 88.7028 567.358 83.6776 565.979 80.7522C563.739 75.9981 556.281 72.9553 546.844 72.9455C544.396 72.9429 540.651 72.3442 538.522 71.6157C532.626 69.598 523.166 69.9327 516.73 72.3875ZM525.955 75.1663C525.955 77.9257 521.426 79.999 518.593 78.5359C515.729 77.0559 516.482 75.3968 520.564 74.1897C525.811 72.6391 525.955 72.6656 525.955 75.1663ZM540.107 75.6758C547.641 78.7646 552.913 85.7624 552.913 92.6755C552.913 96.4892 552.765 96.6535 546.112 100.202C538.502 104.262 529.344 107.488 520.755 109.134C515.107 110.216 514.963 110.194 511.761 107.702C506.622 103.705 504.39 99.3281 504.39 93.2495C504.39 87.6009 506.647 82.6816 510.569 79.7765C512.575 78.2913 512.751 78.301 514.626 79.9973C517.007 82.1518 523.346 82.3734 526.751 80.4202C528.045 79.6776 529.419 77.6944 529.805 76.0131C530.44 73.2413 530.772 73.0073 533.352 73.5142C534.918 73.8224 537.958 74.7946 540.107 75.6758ZM560.027 79.2025C561.466 80.309 562.615 82.2065 562.613 83.4692C562.61 85.5602 559.049 91.4834 557.796 91.4834C557.5 91.4834 556.704 89.6865 556.029 87.4914C555.354 85.2953 553.351 81.8595 551.579 79.856L548.357 76.2127L552.898 76.7116C555.446 76.9915 558.575 78.0847 560.027 79.2025ZM516.491 89.3263C513.47 91.0587 513.233 95.8694 516.066 97.9692C522.923 103.051 532.354 95.0543 525.617 89.8711C522.67 87.6044 519.792 87.4331 516.491 89.3263ZM539.794 89.1779C536.933 90.3391 535.851 94.4 537.871 96.393C538.579 97.0923 540.808 97.6645 542.824 97.6645C545.687 97.6645 546.758 97.1815 547.717 95.457C550.222 90.9554 545.206 86.9801 539.794 89.1779ZM523.181 91.9859C525.501 93.887 523.518 96.9996 520.233 96.6146C517.24 96.2641 516.503 93.2786 519.035 91.7625C521.421 90.3347 521.145 90.3196 523.181 91.9859ZM544.286 93.2495C544.286 95.0773 541.684 95.6866 540.512 94.1325C539.61 92.9369 540.827 91.4834 542.733 91.4834C543.588 91.4834 544.286 92.2782 544.286 93.2495ZM505.963 106.967L508.813 110.027L505.253 110.023C503.295 110.021 500.117 109.233 498.19 108.27C495.267 106.811 494.685 105.986 494.685 103.301C494.685 101.522 495.749 98.6703 497.063 96.9299L499.441 93.7793L501.277 98.8424C502.286 101.628 504.395 105.284 505.963 106.967ZM545.113 107.827C539.989 111.626 534.184 113.559 527.897 113.559C521.534 113.559 522.353 112.442 530.516 109.986C534.828 108.689 540.782 106.443 543.747 104.993C550.701 101.597 551.443 103.134 545.113 107.827Z" fill="white" fill-opacity="0.6"/>
<path fill-rule="evenodd" clip-rule="evenodd" d="M170.473 191.542C164.296 194.078 157.747 200.262 155.879 205.323C155.186 207.205 153.164 210.217 151.387 212.018C146.813 216.654 143.862 222.939 144.694 226.279C146.123 232.013 153.959 235.792 164.42 235.792C166.75 235.792 170.394 236.433 172.52 237.216C185.048 241.831 201.48 235.965 207.494 224.729C210.444 219.219 210.508 219.126 214.938 213.959C219.123 209.077 221.013 203.676 219.636 200.532C217.399 195.422 209.955 192.152 200.534 192.142C198.091 192.139 194.353 191.495 192.227 190.712C186.341 188.544 176.898 188.903 170.473 191.542ZM179.683 194.528C179.683 197.494 175.161 199.723 172.333 198.15C169.474 196.559 170.225 194.776 174.301 193.479C179.538 191.812 179.683 191.841 179.683 194.528ZM193.809 195.076C201.33 198.396 206.592 205.917 206.592 213.347C206.592 217.446 206.445 217.623 199.803 221.437C192.207 225.801 183.066 229.268 174.491 231.037C168.853 232.2 168.71 232.176 165.513 229.497C160.383 225.202 158.155 220.497 158.155 213.964C158.155 207.893 160.408 202.606 164.324 199.483C166.326 197.887 166.501 197.898 168.373 199.721C170.75 202.036 177.078 202.275 180.477 200.175C181.769 199.377 183.14 197.246 183.525 195.439C184.159 192.459 184.491 192.208 187.067 192.753C188.629 193.084 191.664 194.129 193.809 195.076ZM213.694 198.867C215.13 200.056 216.278 202.095 216.275 203.452C216.272 205.7 212.718 212.066 211.467 212.066C211.171 212.066 210.377 210.135 209.703 207.775C209.029 205.415 207.03 201.722 205.261 199.569L202.045 195.653L206.577 196.189C209.121 196.49 212.244 197.665 213.694 198.867ZM170.235 209.748C167.219 211.61 166.982 216.78 169.811 219.037C176.656 224.499 186.07 215.904 179.345 210.333C176.403 207.897 173.53 207.713 170.235 209.748ZM193.497 209.588C190.641 210.836 189.561 215.201 191.577 217.343C192.284 218.094 194.509 218.709 196.522 218.709C199.379 218.709 200.448 218.19 201.406 216.337C203.907 211.499 198.899 207.226 193.497 209.588ZM176.913 212.606C179.229 214.649 177.25 217.995 173.97 217.581C170.982 217.204 170.247 213.995 172.774 212.366C175.156 210.831 174.881 210.815 176.913 212.606ZM197.981 213.964C197.981 215.929 195.384 216.584 194.214 214.913C193.313 213.628 194.528 212.066 196.43 212.066C197.284 212.066 197.981 212.92 197.981 213.964ZM159.725 228.708L162.57 231.996L159.017 231.992C157.062 231.991 153.89 231.143 151.966 230.109C149.048 228.54 148.467 227.653 148.467 224.767C148.467 222.855 149.53 219.79 150.841 217.92L153.215 214.534L155.047 219.975C156.055 222.97 158.16 226.899 159.725 228.708ZM198.807 229.632C193.692 233.715 187.896 235.792 181.621 235.792C175.269 235.792 176.086 234.592 184.235 231.953C188.539 230.558 194.483 228.144 197.443 226.587C204.385 222.936 205.125 224.588 198.807 229.632Z" fill="white" fill-opacity="0.6"/>
<path fill-rule="evenodd" clip-rule="evenodd" d="M653.334 120.599C650.338 115.394 648.905 114.089 643.188 111.361L638.617 109.178L644.095 106.464C649.432 103.821 649.645 103.635 652.322 99.3025C653.832 96.856 655.282 94.656 655.542 94.4125C655.801 94.1695 657.233 96.0338 658.724 98.5561C661.597 103.415 662.351 104.067 668.533 107.034C670.684 108.066 672.224 109.107 671.954 109.346C671.683 109.585 669.265 110.907 666.578 112.283C661.819 114.72 661.615 114.914 658.712 119.773L655.731 124.761L653.334 120.599Z" fill="white" fill-opacity="0.5"/>
<path fill-rule="evenodd" clip-rule="evenodd" d="M488.647 370.2C485.65 364.996 484.217 363.691 478.501 360.962L473.929 358.78L479.407 356.066C484.745 353.423 484.957 353.237 487.634 348.904C489.145 346.458 490.594 344.258 490.854 344.014C491.113 343.771 492.546 345.636 494.037 348.158C496.91 353.017 497.664 353.669 503.846 356.635C505.997 357.668 507.536 358.709 507.267 358.948C506.996 359.187 504.577 360.509 501.89 361.884C497.132 364.322 496.928 364.515 494.024 369.375L491.044 374.363L488.647 370.2Z" fill="white" fill-opacity="0.8"/>
<path fill-rule="evenodd" clip-rule="evenodd" d="M936.947 428.608C933.95 423.403 932.517 422.098 926.801 419.37L922.23 417.187L927.708 414.473C933.045 411.83 933.258 411.644 935.935 407.311C937.445 404.865 938.894 402.665 939.154 402.421C939.414 402.178 940.846 404.043 942.337 406.565C945.21 411.424 945.964 412.076 952.146 415.042C954.297 416.075 955.837 417.116 955.567 417.355C955.296 417.594 952.877 418.916 950.191 420.291C945.432 422.729 945.228 422.922 942.325 427.782L939.344 432.77L936.947 428.608Z" fill="white" fill-opacity="0.5"/>
<path fill-rule="evenodd" clip-rule="evenodd" d="M49.4801 156.663C46.4835 151.458 45.0505 150.153 39.334 147.425L34.7626 145.242L40.2408 142.529C45.5779 139.885 45.7906 139.699 48.4676 135.367C49.9783 132.92 51.4275 130.72 51.6875 130.477C51.9469 130.234 53.3793 132.098 54.8701 134.62C57.743 139.48 58.4974 140.131 64.6791 143.098C66.8305 144.13 68.3699 145.171 68.0999 145.41C67.8294 145.649 65.4106 146.971 62.7237 148.347C57.965 150.784 57.761 150.978 54.8577 155.837L51.8772 160.825L49.4801 156.663Z" fill="white" fill-opacity="0.5"/>
<path fill-rule="evenodd" clip-rule="evenodd" d="M236.772 336.035C233.775 330.83 232.342 329.525 226.626 326.797L222.054 324.614L227.532 321.9C232.87 319.257 233.082 319.071 235.759 314.738C237.27 312.292 238.719 310.092 238.979 309.848C239.239 309.605 240.671 311.47 242.162 313.992C245.035 318.851 245.789 319.503 251.971 322.469C254.122 323.502 255.662 324.543 255.392 324.782C255.121 325.021 252.702 326.343 250.015 327.718C245.257 330.156 245.053 330.349 242.149 335.209L239.169 340.197L236.772 336.035Z" fill="white" fill-opacity="0.5"/>
<path fill-rule="evenodd" clip-rule="evenodd" d="M412.442 224.983C409.445 219.779 408.012 218.474 402.296 215.745L397.724 213.563L403.203 210.849C408.54 208.206 408.752 208.02 411.429 203.687C412.94 201.241 414.389 199.041 414.649 198.797C414.909 198.554 416.341 200.419 417.832 202.941C420.705 207.8 421.459 208.452 427.641 211.418C429.792 212.451 431.331 213.492 431.062 213.731C430.791 213.97 428.372 215.292 425.685 216.667C420.927 219.105 420.723 219.298 417.819 224.158L414.839 229.146L412.442 224.983Z" fill="white" fill-opacity="0.8"/>
<path fill-rule="evenodd" clip-rule="evenodd" d="M304.019 68.9075C297.842 71.4434 291.293 77.6274 289.425 82.6887C288.732 84.5707 286.71 87.583 284.934 89.3834C280.359 94.0195 277.409 100.305 278.241 103.645C279.669 109.379 287.505 113.158 297.967 113.158C300.296 113.158 303.941 113.799 306.066 114.582C318.594 119.197 335.027 113.331 341.04 102.095C343.99 96.5848 344.054 96.4918 348.484 91.3251C352.669 86.4432 354.559 81.0421 353.182 77.8979C350.945 72.7882 343.501 69.5177 334.08 69.5073C331.637 69.5044 327.899 68.861 325.773 68.078C319.887 65.9094 310.444 66.2691 304.019 68.9075ZM313.229 71.8942C313.229 74.86 308.707 77.0883 305.879 75.5158C303.02 73.9251 303.772 72.1419 307.847 70.8445C313.084 69.178 313.229 69.2064 313.229 71.8942ZM327.355 72.4418C334.876 75.7616 340.138 83.2828 340.138 90.713C340.138 94.812 339.991 94.9885 333.35 98.8028C325.754 103.167 316.612 106.633 308.037 108.402C302.399 109.566 302.256 109.541 299.059 106.863C293.929 102.568 291.701 97.8632 291.701 91.3299C291.701 85.2588 293.954 79.9716 297.87 76.8492C299.872 75.2529 300.047 75.2633 301.919 77.0864C304.296 79.4021 310.624 79.6404 314.023 77.541C315.315 76.7429 316.686 74.6113 317.071 72.8043C317.705 69.8252 318.037 69.5737 320.613 70.1185C322.176 70.4497 325.21 71.4946 327.355 72.4418ZM347.24 76.2323C348.676 77.4215 349.824 79.461 349.822 80.8181C349.818 83.0655 346.264 89.4318 345.013 89.4318C344.717 89.4318 343.923 87.5004 343.249 85.1411C342.575 82.7808 340.576 79.088 338.807 76.9346L335.591 73.0188L340.123 73.555C342.667 73.8559 345.791 75.0308 347.24 76.2323ZM303.781 87.1132C300.765 88.9753 300.528 94.1457 303.357 96.4026C310.202 101.864 319.616 93.2698 312.891 87.6988C309.949 85.2626 307.076 85.0784 303.781 87.1132ZM327.043 86.9538C324.187 88.2018 323.107 92.5665 325.123 94.7085C325.83 95.4602 328.055 96.0752 330.068 96.0752C332.926 96.0752 333.994 95.556 334.952 93.7025C337.453 88.8642 332.445 84.5916 327.043 86.9538ZM310.459 89.9718C312.776 92.0151 310.796 95.3605 307.516 94.9467C304.528 94.57 303.793 91.3612 306.32 89.7317C308.702 88.197 308.427 88.1809 310.459 89.9718ZM331.527 91.3299C331.527 93.2944 328.93 93.9493 327.76 92.2789C326.859 90.9939 328.074 89.4318 329.976 89.4318C330.83 89.4318 331.527 90.2859 331.527 91.3299ZM293.271 106.073L296.116 109.362L292.563 109.358C290.608 109.356 287.436 108.509 285.512 107.474C282.595 105.905 282.013 105.019 282.013 102.133C282.013 100.221 283.076 97.1561 284.387 95.2856L286.761 91.8993L288.593 97.3412C289.601 100.335 291.706 104.265 293.271 106.073ZM332.353 106.998C327.238 111.081 321.443 113.158 315.167 113.158C308.815 113.158 309.632 111.958 317.781 109.318C322.085 107.924 328.029 105.51 330.989 103.952C337.931 100.301 338.671 101.954 332.353 106.998Z" fill="white" fill-opacity="0.1"/>
</g>
<defs>
<linearGradient id="paint0_linear_4_6" x1="0" y1="0" x2="1537.08" y2="-4.50209e-05" gradientUnits="userSpaceOnUse">
<stop stop-color="#12E3EA"/>
<stop offset="0.345938" stop-color="#32C1EF"/>
<stop offset="0.753125" stop-color="#6091F7"/>
<stop offset="1" stop-color="#8B66FB"/>
</linearGradient>
<clipPath id="clip0_4_6">
<rect width="1550" height="503" fill="white"/>
</clipPath>
</defs>
</svg>
