<svg width="1550" height="503" viewBox="0 0 1550 503" fill="none" xmlns="http://www.w3.org/2000/svg">
<g clip-path="url(#clip0_54_2)">
<rect width="1550" height="503" fill="#8B66FB"/>
<path d="M620.649 544.51C703.111 462.574 988.2 205.668 1120 544.51V624.998H620.649C620.649 624.998 538.188 626.446 620.649 544.51Z" fill="#EDFFFF"/>
<path d="M249.461 257.582C326.999 190.988 595.069 -17.8119 719 257.582V322.999H249.461C249.461 322.999 171.923 324.175 249.461 257.582Z" fill="#EDFFFF"/>
<path d="M464.461 398.902C541.999 332.635 810.069 124.859 934 398.902V463.999H464.461C464.461 463.999 386.923 465.169 464.461 398.902Z" fill="#EDFFFF"/>
<path d="M150.872 480.953C193.333 439.169 340.133 308.157 408 480.953V521.999H150.872C150.872 521.999 108.41 522.737 150.872 480.953Z" fill="white"/>
<path d="M126.889 465.455C182.889 376.337 376.494 96.9135 466 465.455V552.998H126.889C126.889 552.998 70.889 554.573 126.889 465.455Z" fill="white"/>
<path d="M523.555 490.789C603.555 427.459 880.134 228.895 1008 490.789V552.999H523.555C523.555 552.999 443.556 554.118 523.555 490.789Z" fill="white"/>
<path d="M-171.906 116.742C-61.4452 11.6286 320.447 -317.948 497 116.742V219.998H-171.906C-171.906 219.998 -282.367 221.855 -171.906 116.742Z" fill="white"/>
<path d="M196.572 516.789C272.111 453.459 533.265 254.895 654 516.789V578.999H196.572C196.572 578.999 121.034 580.118 196.572 516.789Z" fill="white"/>
<path d="M269.53 537.953C329.222 496.169 535.592 365.157 631 537.953V578.999H269.53C269.53 578.999 209.838 579.737 269.53 537.953Z" fill="white"/>
<path d="M130.581 503.497C194.888 396.099 417.216 59.3573 520 503.497V608.998H130.581C130.581 608.998 66.2737 610.895 130.581 503.497Z" fill="white"/>
<rect x="126" y="118" width="225" height="323" fill="white"/>
<rect x="-45" y="201" width="225" height="323" fill="white"/>
<path d="M99.6493 440.78C218.11 334.687 627.66 2.0399 817 440.78V544.998H99.6493C99.6493 544.998 -18.8117 546.872 99.6493 440.78Z" fill="white"/>
<path d="M332.094 584.721C442.555 488.748 824.447 187.83 1001 584.721V678.998H332.094C332.094 678.998 221.633 680.694 332.094 584.721Z" fill="white"/>
<path d="M254.231 199.831C293 118.221 427.034 -137.662 489 199.831V279.998H254.231C254.231 279.998 215.462 281.44 254.231 199.831Z" fill="white"/>
<path d="M903.743 611.215C952.666 579.877 1121.81 481.618 1200 611.215V641.999H903.743C903.743 641.999 854.821 642.553 903.743 611.215Z" fill="#EDFFFF"/>
<path fill-rule="evenodd" clip-rule="evenodd" d="M-18.9372 96.9023C-27.7706 100.181 -37.1351 108.176 -39.8056 114.719C-40.7968 117.153 -43.689 121.047 -46.2287 123.375C-52.7703 129.369 -56.9892 137.495 -55.7994 141.813C-53.7569 149.226 -42.5515 154.112 -27.5921 154.112C-24.2612 154.112 -19.0495 154.94 -16.0096 155.953C1.90512 161.919 25.4025 154.335 34.002 139.809C38.2194 132.685 38.3117 132.565 44.6455 125.885C50.6299 119.573 53.3328 112.591 51.3641 108.526C48.1657 101.919 37.5206 97.6913 24.0496 97.6778C20.5556 97.6741 15.2099 96.8422 12.17 95.8299C3.75369 93.0262 -9.74968 93.4913 -18.9372 96.9023ZM-5.76778 100.764C-5.76778 104.598 -12.2339 107.479 -16.2774 105.446C-20.3655 103.389 -19.2912 101.084 -13.4638 99.4066C-5.97403 97.252 -5.76778 97.2888 -5.76778 100.764ZM14.4326 101.472C25.187 105.764 32.7122 115.488 32.7122 125.094C32.7122 130.393 32.5013 130.621 23.0044 135.553C12.1423 141.194 -0.930088 145.676 -13.1913 147.964C-21.2536 149.468 -21.4584 149.436 -26.0298 145.973C-33.3656 140.42 -36.5517 134.338 -36.5517 125.891C-36.5517 118.042 -33.3302 111.207 -27.7306 107.17C-24.8677 105.106 -24.6168 105.119 -21.9401 107.477C-18.5416 110.47 -9.49264 110.778 -4.63186 108.064C-2.78482 107.032 -0.823879 104.277 -0.272846 101.94C0.633739 98.0888 1.10781 97.7636 4.79111 98.4679C7.02603 98.8962 11.365 100.247 14.4326 101.472ZM42.8678 106.372C44.9211 107.91 46.5618 110.546 46.5588 112.301C46.5542 115.207 41.4717 123.437 39.6832 123.437C39.2599 123.437 38.124 120.94 37.1604 117.89C36.1969 114.838 33.3386 110.064 30.8082 107.28L26.209 102.218L32.6906 102.911C36.3277 103.3 40.7945 104.819 42.8678 106.372ZM-19.2773 120.44C-23.5901 122.847 -23.9288 129.532 -19.8838 132.45C-10.096 139.511 3.36582 128.399 -6.25109 121.197C-10.4577 118.047 -14.5658 117.809 -19.2773 120.44ZM13.9863 120.234C9.90279 121.847 8.35743 127.49 11.2403 130.259C12.2516 131.231 15.4331 132.026 18.3114 132.026C22.398 132.026 23.9264 131.355 25.2963 128.959C28.8719 122.704 21.7115 117.18 13.9863 120.234ZM-9.72814 124.135C-6.41579 126.777 -9.24636 131.102 -13.9363 130.567C-18.2091 130.08 -19.2604 125.932 -15.6463 123.825C-12.2401 121.841 -12.6341 121.82 -9.72814 124.135ZM20.3986 125.891C20.3986 128.431 16.6845 129.278 15.0114 127.118C13.7231 125.457 15.4608 123.437 18.1806 123.437C19.4012 123.437 20.3986 124.542 20.3986 125.891ZM-34.306 144.953L-30.2379 149.204L-35.3188 149.199C-38.114 149.197 -42.65 148.101 -45.4021 146.764C-49.5733 144.735 -50.4045 143.589 -50.4045 139.858C-50.4045 137.386 -48.8853 133.424 -47.0106 131.005L-43.6151 126.627L-40.9954 133.663C-39.5547 137.534 -36.544 142.614 -34.306 144.953ZM21.5791 146.148C14.2649 151.426 5.97783 154.112 -2.99569 154.112C-12.0785 154.112 -10.9102 152.56 0.741486 149.148C6.89674 147.345 15.3962 144.224 19.629 142.21C29.5553 137.49 30.6142 139.626 21.5791 146.148Z" fill="white" fill-opacity="0.1"/>
</g>
<defs>
<clipPath id="clip0_54_2">
<rect width="1550" height="503" fill="white"/>
</clipPath>
</defs>
</svg>
