<svg width="1539" height="530" viewBox="0 0 1539 530" fill="none" xmlns="http://www.w3.org/2000/svg">
<g clip-path="url(#clip0_4_6)">
<rect width="1539" height="530" fill="url(#paint0_linear_4_6)"/>
<path fill-rule="evenodd" clip-rule="evenodd" d="M944.98 101.44C939.175 102.512 930.675 106.921 927.283 110.62C921.883 116.506 920.199 120.868 920.194 128.976C920.19 135.101 920.541 136.836 922.576 140.712C928.913 152.79 944.093 159.388 958.215 156.202C986.995 149.711 990.936 114.831 964.135 103.797C957.996 101.27 950.735 100.377 944.98 101.44ZM951.925 105.359C951.925 107.131 947.953 110.209 945.667 110.209C943.67 110.209 939.239 107.107 939.892 106.165C940.562 105.195 945.437 103.981 949.019 103.892C951.32 103.836 951.925 104.141 951.925 105.359ZM963.737 106.56C968.532 108.594 974.278 114.017 976.754 118.849C979.321 123.859 979.844 131.719 977.945 136.762C976.692 140.085 976.379 140.223 973.879 138.534C971.225 136.741 965.826 137.055 963.133 139.158C959.941 141.651 959.004 145.126 960.485 148.977C961.842 152.502 961.454 152.978 956.532 153.824C948.416 155.219 938.781 152.923 932.294 148.047C925.996 143.313 921.713 133.458 922.831 126.271C923.704 120.654 928.176 113.098 932.391 110.115C936.028 107.541 936.041 107.539 937.5 109.178C942.456 114.746 951.997 113.363 954.7 106.683C955.679 104.266 956.022 104.066 958.215 104.628C959.553 104.97 962.037 105.84 963.737 106.56ZM958.281 116.116C955.735 117.376 953.788 120.273 953.744 122.867C953.704 125.225 959.102 130.174 961.713 130.174C964.878 130.174 968.586 128.008 969.762 125.473C972.864 118.783 965.316 112.631 958.281 116.116ZM931.395 119.74C929.073 123.615 931.496 127.231 936.141 126.823C938.033 126.657 939.323 125.915 940.222 124.476C941.4 122.592 941.378 122.154 940.005 120.283C938.067 117.641 932.849 117.312 931.395 119.74ZM966.049 119.153C967.568 120.51 967.379 124.24 965.717 125.725C961.381 129.598 955.241 124.701 958.213 119.74C959.275 117.969 964.302 117.593 966.049 119.153ZM937.453 122.4C937.809 124.05 935.229 125.162 933.867 123.945C932.504 122.728 933.75 120.423 935.597 120.741C936.453 120.888 937.289 121.635 937.453 122.4ZM937.805 134.205C935.418 135.061 932.91 139.813 933.741 141.908C935.759 147.004 942.127 148.581 946.154 144.984C950.07 141.486 948.724 135.965 943.524 134.198C940.682 133.233 940.516 133.233 937.805 134.205ZM944.262 137.817C946.145 139.5 946.032 141.028 943.879 142.951C941.726 144.874 940.015 144.976 938.132 143.294C936.465 141.805 936.296 138.865 937.8 137.521C939.305 136.177 942.595 136.328 944.262 137.817ZM972.79 140.921C975.024 142.434 974.089 144.708 969.993 147.725C966.171 150.539 964.849 150.718 963.577 148.594C962.081 146.096 962.503 143.811 964.847 141.718C967.287 139.537 970.299 139.236 972.79 140.921Z" fill="white" fill-opacity="0.1"/>
<path fill-rule="evenodd" clip-rule="evenodd" d="M1341.49 273.44C1335.68 274.512 1327.18 278.921 1323.79 282.62C1318.39 288.506 1316.71 292.868 1316.7 300.976C1316.7 307.101 1317.05 308.836 1319.08 312.712C1325.42 324.79 1340.6 331.388 1354.72 328.202C1383.5 321.711 1387.44 286.831 1360.64 275.797C1354.5 273.27 1347.24 272.377 1341.49 273.44ZM1348.43 277.359C1348.43 279.131 1344.46 282.209 1342.17 282.209C1340.18 282.209 1335.75 279.107 1336.4 278.165C1337.07 277.195 1341.94 275.981 1345.53 275.892C1347.83 275.836 1348.43 276.141 1348.43 277.359ZM1360.24 278.56C1365.04 280.594 1370.78 286.017 1373.26 290.849C1375.83 295.859 1376.35 303.719 1374.45 308.762C1373.2 312.085 1372.88 312.223 1370.39 310.534C1367.73 308.741 1362.33 309.055 1359.64 311.158C1356.45 313.651 1355.51 317.126 1356.99 320.977C1358.35 324.502 1357.96 324.978 1353.04 325.824C1344.92 327.219 1335.29 324.923 1328.8 320.047C1322.5 315.313 1318.22 305.458 1319.34 298.271C1320.21 292.654 1324.68 285.098 1328.9 282.115C1332.53 279.541 1332.55 279.539 1334.01 281.178C1338.96 286.746 1348.5 285.363 1351.21 278.683C1352.19 276.266 1352.53 276.066 1354.72 276.628C1356.06 276.97 1358.54 277.84 1360.24 278.56ZM1354.79 288.116C1352.24 289.376 1350.29 292.273 1350.25 294.867C1350.21 297.225 1355.61 302.174 1358.22 302.174C1361.38 302.174 1365.09 300.008 1366.27 297.473C1369.37 290.783 1361.82 284.631 1354.79 288.116ZM1327.9 291.74C1325.58 295.615 1328 299.231 1332.65 298.823C1334.54 298.657 1335.83 297.915 1336.73 296.476C1337.91 294.592 1337.88 294.154 1336.51 292.283C1334.57 289.641 1329.36 289.312 1327.9 291.74ZM1362.56 291.153C1364.07 292.51 1363.89 296.24 1362.22 297.725C1357.89 301.598 1351.75 296.701 1354.72 291.74C1355.78 289.969 1360.81 289.593 1362.56 291.153ZM1333.96 294.4C1334.32 296.05 1331.74 297.162 1330.37 295.945C1329.01 294.728 1330.26 292.423 1332.1 292.741C1332.96 292.888 1333.79 293.635 1333.96 294.4ZM1334.31 306.205C1331.92 307.061 1329.42 311.813 1330.25 313.908C1332.27 319.004 1338.63 320.581 1342.66 316.984C1346.58 313.486 1345.23 307.965 1340.03 306.198C1337.19 305.233 1337.02 305.233 1334.31 306.205ZM1340.77 309.817C1342.65 311.5 1342.54 313.028 1340.39 314.951C1338.23 316.874 1336.52 316.976 1334.64 315.294C1332.97 313.805 1332.8 310.865 1334.31 309.521C1335.81 308.177 1339.1 308.328 1340.77 309.817ZM1369.3 312.921C1371.53 314.434 1370.6 316.708 1366.5 319.725C1362.68 322.539 1361.36 322.718 1360.08 320.594C1358.59 318.096 1359.01 315.811 1361.35 313.718C1363.79 311.537 1366.8 311.236 1369.3 312.921Z" fill="white" fill-opacity="0.6"/>
<path fill-rule="evenodd" clip-rule="evenodd" d="M1310.49 45.4398C1304.69 46.5123 1296.19 50.9213 1292.8 54.6196C1287.4 60.506 1285.71 64.8679 1285.71 72.976C1285.7 79.1012 1286.05 80.8358 1288.09 84.7121C1294.43 96.79 1309.61 103.388 1323.73 100.202C1352.51 93.7107 1356.45 58.8306 1329.65 47.7972C1323.51 45.2705 1316.25 44.3769 1310.49 45.4398ZM1317.44 49.3593C1317.44 51.1314 1313.47 54.2091 1311.18 54.2091C1309.18 54.2091 1304.75 51.1074 1305.4 50.1651C1306.07 49.1948 1310.95 47.9809 1314.53 47.8923C1316.83 47.8356 1317.44 48.1406 1317.44 49.3593ZM1329.25 50.5604C1334.04 52.5936 1339.79 58.0168 1342.27 62.8491C1344.83 67.8595 1345.36 75.7192 1343.46 80.7623C1342.2 84.0852 1341.89 84.2226 1339.39 82.5336C1336.74 80.7407 1331.34 81.0546 1328.65 83.1581C1325.45 85.6513 1324.52 89.126 1326 92.9768C1327.35 96.5017 1326.97 96.9777 1322.04 97.8242C1313.93 99.2194 1304.29 96.9234 1297.81 92.0472C1291.51 87.3132 1287.23 77.4577 1288.34 70.2712C1289.22 64.6539 1293.69 57.0976 1297.9 54.1149C1301.54 51.541 1301.55 51.5386 1303.01 53.1782C1307.97 58.7459 1317.51 57.3628 1320.21 50.6834C1321.19 48.266 1321.53 48.0656 1323.73 48.6278C1325.07 48.9704 1327.55 49.84 1329.25 50.5604ZM1323.79 60.1155C1321.25 61.3757 1319.3 64.273 1319.26 66.8668C1319.22 69.2251 1324.61 74.1739 1327.23 74.1739C1330.39 74.1739 1334.1 72.0081 1335.27 69.4726C1338.38 62.7828 1330.83 56.6313 1323.79 60.1155ZM1296.91 63.7395C1294.59 67.6151 1297.01 71.2311 1301.65 70.823C1303.54 70.6569 1304.83 69.915 1305.73 68.476C1306.91 66.5921 1306.89 66.1537 1305.52 64.2834C1303.58 61.6408 1298.36 61.3118 1296.91 63.7395ZM1331.56 63.1534C1333.08 64.5102 1332.89 68.2396 1331.23 69.725C1326.89 73.5981 1320.75 68.7012 1323.73 63.7395C1324.79 61.969 1329.81 61.5929 1331.56 63.1534ZM1302.97 66.3996C1303.32 68.0495 1300.74 69.162 1299.38 67.9449C1298.02 66.7279 1299.26 64.4231 1301.11 64.741C1301.97 64.8879 1302.8 65.6346 1302.97 66.3996ZM1303.32 78.2052C1300.93 79.0605 1298.42 83.8129 1299.25 85.9084C1301.27 91.0042 1307.64 92.5815 1311.67 88.9838C1315.58 85.486 1314.24 79.9645 1309.04 78.198C1306.19 77.2325 1306.03 77.2333 1303.32 78.2052ZM1309.77 81.8172C1311.66 83.4999 1311.54 85.0284 1309.39 86.9514C1307.24 88.8744 1305.53 88.9758 1303.64 87.294C1301.98 85.8046 1301.81 82.865 1303.31 81.521C1304.82 80.1769 1308.11 80.3279 1309.77 81.8172ZM1338.3 84.9214C1340.54 86.4339 1339.6 88.7083 1335.51 91.7246C1331.68 94.5388 1330.36 94.7177 1329.09 92.5942C1327.59 90.0962 1328.02 87.8107 1330.36 85.7176C1332.8 83.5366 1335.81 83.2355 1338.3 84.9214Z" fill="white" fill-opacity="0.1"/>
<path fill-rule="evenodd" clip-rule="evenodd" d="M1178.36 384.44C1172.55 385.512 1164.05 389.921 1160.66 393.62C1155.26 399.506 1153.58 403.868 1153.57 411.976C1153.57 418.101 1153.92 419.836 1155.96 423.712C1162.29 435.79 1177.47 442.388 1191.59 439.202C1220.37 432.711 1224.31 397.831 1197.51 386.797C1191.38 384.27 1184.11 383.377 1178.36 384.44ZM1185.3 388.359C1185.3 390.131 1181.33 393.209 1179.05 393.209C1177.05 393.209 1172.62 390.107 1173.27 389.165C1173.94 388.195 1178.82 386.981 1182.4 386.892C1184.7 386.836 1185.3 387.141 1185.3 388.359ZM1197.12 389.56C1201.91 391.594 1207.66 397.017 1210.13 401.849C1212.7 406.859 1213.22 414.719 1211.32 419.762C1210.07 423.085 1209.76 423.223 1207.26 421.534C1204.6 419.741 1199.21 420.055 1196.51 422.158C1193.32 424.651 1192.38 428.126 1193.86 431.977C1195.22 435.502 1194.83 435.978 1189.91 436.824C1181.79 438.219 1172.16 435.923 1165.67 431.047C1159.38 426.313 1155.09 416.458 1156.21 409.271C1157.08 403.654 1161.56 396.098 1165.77 393.115C1169.41 390.541 1169.42 390.539 1170.88 392.178C1175.84 397.746 1185.38 396.363 1188.08 389.683C1189.06 387.266 1189.4 387.066 1191.59 387.628C1192.93 387.97 1195.42 388.84 1197.12 389.56ZM1191.66 399.116C1189.11 400.376 1187.17 403.273 1187.12 405.867C1187.08 408.225 1192.48 413.174 1195.09 413.174C1198.26 413.174 1201.97 411.008 1203.14 408.473C1206.24 401.783 1198.7 395.631 1191.66 399.116ZM1164.77 402.74C1162.45 406.615 1164.88 410.231 1169.52 409.823C1171.41 409.657 1172.7 408.915 1173.6 407.476C1174.78 405.592 1174.76 405.154 1173.38 403.283C1171.45 400.641 1166.23 400.312 1164.77 402.74ZM1199.43 402.153C1200.95 403.51 1200.76 407.24 1199.1 408.725C1194.76 412.598 1188.62 407.701 1191.59 402.74C1192.65 400.969 1197.68 400.593 1199.43 402.153ZM1170.83 405.4C1171.19 407.05 1168.61 408.162 1167.25 406.945C1165.88 405.728 1167.13 403.423 1168.98 403.741C1169.83 403.888 1170.67 404.635 1170.83 405.4ZM1171.18 417.205C1168.8 418.061 1166.29 422.813 1167.12 424.908C1169.14 430.004 1175.51 431.581 1179.53 427.984C1183.45 424.486 1182.1 418.965 1176.9 417.198C1174.06 416.233 1173.9 416.233 1171.18 417.205ZM1177.64 420.817C1179.52 422.5 1179.41 424.028 1177.26 425.951C1175.11 427.874 1173.39 427.976 1171.51 426.294C1169.84 424.805 1169.67 421.865 1171.18 420.521C1172.68 419.177 1175.97 419.328 1177.64 420.817ZM1206.17 423.921C1208.4 425.434 1207.47 427.708 1203.37 430.725C1199.55 433.539 1198.23 433.718 1196.96 431.594C1195.46 429.096 1195.88 426.811 1198.23 424.718C1200.67 422.537 1203.68 422.236 1206.17 423.921Z" fill="white" fill-opacity="0.1"/>
<path fill-rule="evenodd" clip-rule="evenodd" d="M567.712 45.4398C561.906 46.5123 553.407 50.9213 550.014 54.6196C544.615 60.506 542.93 64.8679 542.925 72.976C542.921 79.1012 543.273 80.8358 545.307 84.7121C551.645 96.79 566.824 103.388 580.946 100.202C609.726 93.7107 613.667 58.8306 586.866 47.7972C580.727 45.2705 573.466 44.3769 567.712 45.4398ZM574.656 49.3593C574.656 51.1314 570.684 54.2091 568.398 54.2091C566.401 54.2091 561.971 51.1074 562.623 50.1651C563.294 49.1948 568.168 47.9809 571.75 47.8923C574.051 47.8356 574.656 48.1406 574.656 49.3593ZM586.468 50.5604C591.264 52.5936 597.009 58.0168 599.485 62.8491C602.053 67.8595 602.575 75.7192 600.676 80.7623C599.424 84.0852 599.11 84.2226 596.61 82.5336C593.956 80.7407 588.558 81.0546 585.864 83.1581C582.672 85.6513 581.735 89.126 583.216 92.9768C584.573 96.5017 584.185 96.9777 579.263 97.8242C571.147 99.2194 561.512 96.9234 555.026 92.0472C548.728 87.3132 544.445 77.4577 545.562 70.2712C546.436 64.6539 550.907 57.0976 555.122 54.1149C558.76 51.541 558.772 51.5386 560.231 53.1782C565.187 58.7459 574.728 57.3628 577.431 50.6834C578.41 48.266 578.754 48.0656 580.946 48.6278C582.284 48.9704 584.768 49.84 586.468 50.5604ZM581.012 60.1155C578.466 61.3757 576.519 64.273 576.475 66.8668C576.436 69.2251 581.833 74.1739 584.444 74.1739C587.609 74.1739 591.317 72.0081 592.493 69.4726C595.595 62.7828 588.047 56.6313 581.012 60.1155ZM554.126 63.7395C551.805 67.6151 554.227 71.2311 558.872 70.823C560.764 70.6569 562.054 69.915 562.953 68.476C564.131 66.5921 564.109 66.1537 562.737 64.2834C560.799 61.6408 555.581 61.3118 554.126 63.7395ZM588.78 63.1534C590.299 64.5102 590.11 68.2396 588.448 69.725C584.112 73.5981 577.972 68.7012 580.945 63.7395C582.006 61.969 587.033 61.5929 588.78 63.1534ZM560.184 66.3996C560.54 68.0495 557.96 69.162 556.598 67.9449C555.236 66.7279 556.481 64.4231 558.328 64.741C559.184 64.8879 560.02 65.6346 560.184 66.3996ZM560.537 78.2052C558.149 79.0605 555.641 83.8129 556.472 85.9084C558.49 91.0042 564.858 92.5815 568.885 88.9838C572.802 85.486 571.455 79.9645 566.255 78.198C563.413 77.2325 563.247 77.2333 560.537 78.2052ZM566.994 81.8172C568.876 83.4999 568.763 85.0284 566.61 86.9514C564.458 88.8744 562.747 88.9758 560.863 87.294C559.196 85.8046 559.027 82.865 560.531 81.521C562.036 80.1769 565.326 80.3279 566.994 81.8172ZM595.521 84.9214C597.755 86.4339 596.82 88.7083 592.724 91.7246C588.903 94.5388 587.58 94.7177 586.308 92.5942C584.812 90.0962 585.234 87.8107 587.578 85.7176C590.018 83.5366 593.03 83.2355 595.521 84.9214Z" fill="white" fill-opacity="0.15"/>
<path d="M734.478 496.329C775.912 462.053 919.162 354.582 985.387 496.329V529.999H734.478C734.478 529.999 693.043 530.605 734.478 496.329Z" fill="white"/>
<path d="M475.913 496.329C517.512 462.053 661.33 354.582 727.819 496.329V529.999H475.913C475.913 529.999 434.315 530.605 475.913 496.329Z" fill="white"/>
<path d="M635.084 468.329C676.518 434.053 819.768 326.582 885.994 468.329V501.999H635.084C635.084 501.999 593.65 502.605 635.084 468.329Z" fill="white"/>
<path d="M475.913 496.329C517.512 462.053 661.33 354.582 727.819 496.329V529.999H475.913C475.913 529.999 434.315 530.605 475.913 496.329Z" fill="white"/>
<path d="M521.87 438.329C563.469 404.053 707.286 296.582 773.775 438.329V471.999H521.87C521.87 471.999 480.271 472.605 521.87 438.329Z" fill="#EDFFFF"/>
<path d="M17.3557 429.329C46.7873 395.053 148.54 287.582 195.581 429.329V462.999H17.3557C17.3557 462.999 -12.0759 463.605 17.3557 429.329Z" fill="white"/>
<path d="M0.219178 417.168C39.1873 344.046 173.91 114.775 236.194 417.168V488.998H0.219178C0.219178 488.998 -38.7489 490.29 0.219178 417.168Z" fill="white"/>
<path d="M274.468 438.012C326.918 386.109 508.254 223.367 592.088 438.012V488.999H274.468C274.468 488.999 222.017 489.916 274.468 438.012Z" fill="white"/>
<path d="M207.758 408.185C271.225 343.224 490.646 139.541 592.088 408.185V471.999H207.758C207.758 471.999 144.291 473.146 207.758 408.185Z" fill="white"/>
<path d="M207.758 408.185C271.225 343.224 490.646 139.541 592.088 408.185V471.999H207.758C207.758 471.999 144.291 473.146 207.758 408.185Z" fill="#EDFFFF"/>
<path d="M-207.411 131.341C-130.625 45.1613 134.841 -225.051 257.569 131.341V215.998H-207.411C-207.411 215.998 -284.196 217.521 -207.411 131.341Z" fill="white"/>
<path d="M42.6768 297.341C119.462 211.161 384.928 -59.0507 507.656 297.341V381.998H42.6768C42.6768 381.998 -34.1084 383.521 42.6768 297.341Z" fill="white"/>
<path d="M42.6768 297.341C119.462 211.161 384.928 -59.0507 507.656 297.341V381.998H42.6768C42.6768 381.998 -34.1084 383.521 42.6768 297.341Z" fill="#EDFFFF"/>
<path d="M48.9615 459.012C101.412 407.109 282.748 244.367 366.581 459.012V509.999H48.9615C48.9615 509.999 -3.48927 510.916 48.9615 459.012Z" fill="white"/>
<path d="M99.6403 476.329C141.075 442.053 284.324 334.582 350.55 476.329V509.999H99.6403C99.6403 509.999 58.2059 510.605 99.6403 476.329Z" fill="white"/>
<path d="M2.77686 448.417C47.4997 360.279 202.118 83.9255 273.6 448.417V534.998H2.77686C2.77686 534.998 -41.946 536.555 2.77686 448.417Z" fill="white"/>
<rect width="104.175" height="50.1144" transform="matrix(0.729093 -0.684415 0.729093 0.684415 773.953 481.299)" fill="#FDFDFE"/>
<rect y="132" width="156.038" height="265" fill="white"/>
<ellipse cx="1219.44" cy="575" rx="66.2625" ry="59" fill="white"/>
<ellipse cx="1124.32" cy="569" rx="66.2625" ry="59" fill="white"/>
<ellipse opacity="0.8" cx="848.03" cy="437.5" rx="137.652" ry="65.5" fill="#EDFFFF"/>
<ellipse opacity="0.8" cx="1131.27" cy="531" rx="99.9282" ry="63" fill="#EDFFFF"/>
<ellipse opacity="0.8" cx="895.078" cy="488" rx="99.9281" ry="63" fill="#EDFFFF"/>
<path d="M-20.3795 404.717C56.4058 326.045 321.872 79.3742 444.6 404.717V481.998H-20.3795C-20.3795 481.998 -97.1647 483.388 -20.3795 404.717Z" fill="white"/>
<path d="M143.139 514.717C219.924 436.045 485.391 189.374 608.119 514.717V591.998H143.139C143.139 591.998 66.354 593.388 143.139 514.717Z" fill="white"/>
<path d="M670.028 516.506C753.904 451.871 1043.88 249.212 1177.94 516.506V579.999H670.028C670.028 579.999 586.153 581.141 670.028 516.506Z" fill="white"/>
<ellipse cx="1031.34" cy="531" rx="66.2625" ry="59" fill="white"/>
<ellipse opacity="0.8" cx="1074.63" cy="507.5" rx="41.1469" ry="14.5" fill="#EDFFFF"/>
<ellipse opacity="0.8" cx="1158.53" cy="527" rx="32.0625" ry="17" fill="#EDFFFF"/>
<path fill-rule="evenodd" clip-rule="evenodd" d="M699.047 240.365C692.914 243.037 686.411 249.553 684.557 254.886C683.869 256.869 681.861 260.043 680.097 261.94C675.555 266.825 672.626 273.448 673.452 276.967C674.87 283.009 682.651 286.991 693.038 286.991C695.35 286.991 698.969 287.666 701.08 288.491C713.519 293.354 729.835 287.173 735.806 275.334C738.734 269.528 738.798 269.43 743.196 263.986C747.352 258.842 749.228 253.151 747.861 249.838C745.641 244.454 738.249 241.008 728.895 240.997C726.469 240.994 722.758 240.316 720.647 239.491C714.803 237.206 705.427 237.585 699.047 240.365ZM708.192 243.512C708.192 246.637 703.702 248.985 700.894 247.328C698.056 245.652 698.801 243.773 702.848 242.406C708.048 240.65 708.192 240.68 708.192 243.512ZM722.218 244.089C729.685 247.587 734.91 255.512 734.91 263.341C734.91 267.66 734.764 267.846 728.17 271.865C720.628 276.463 711.551 280.116 703.037 281.98C697.439 283.206 697.297 283.18 694.122 280.358C689.029 275.832 686.817 270.875 686.817 263.991C686.817 257.594 689.053 252.023 692.942 248.733C694.929 247.051 695.104 247.062 696.962 248.983C699.322 251.423 705.605 251.674 708.98 249.462C710.263 248.621 711.624 246.375 712.007 244.471C712.636 241.332 712.966 241.067 715.523 241.641C717.075 241.99 720.088 243.091 722.218 244.089ZM741.962 248.083C743.388 249.336 744.527 251.485 744.525 252.915C744.522 255.283 740.993 261.991 739.751 261.991C739.457 261.991 738.668 259.956 737.999 257.47C737.33 254.983 735.345 251.092 733.588 248.823L730.395 244.697L734.895 245.262C737.421 245.579 740.522 246.817 741.962 248.083ZM698.811 259.548C695.816 261.51 695.581 266.958 698.39 269.336C705.186 275.091 714.533 266.035 707.856 260.165C704.935 257.598 702.083 257.404 698.811 259.548ZM721.908 259.38C719.072 260.695 717.999 265.294 720.001 267.551C720.703 268.343 722.913 268.991 724.911 268.991C727.749 268.991 728.81 268.444 729.761 266.491C732.244 261.393 727.272 256.891 721.908 259.38ZM705.442 262.56C707.742 264.713 705.776 268.238 702.52 267.802C699.553 267.405 698.823 264.024 701.332 262.307C703.697 260.69 703.424 260.673 705.442 262.56ZM726.36 263.991C726.36 266.061 723.781 266.751 722.62 264.991C721.725 263.637 722.932 261.991 724.82 261.991C725.668 261.991 726.36 262.891 726.36 263.991ZM688.376 279.526L691.201 282.991L687.673 282.987C685.732 282.985 682.582 282.092 680.671 281.002C677.775 279.349 677.198 278.415 677.198 275.374C677.198 273.359 678.253 270.13 679.554 268.159L681.912 264.591L683.731 270.325C684.731 273.48 686.822 277.62 688.376 279.526ZM727.18 280.5C722.101 284.802 716.347 286.991 710.116 286.991C703.81 286.991 704.621 285.726 712.711 282.945C716.985 281.476 722.887 278.932 725.826 277.291C732.718 273.444 733.454 275.185 727.18 280.5Z" fill="white" fill-opacity="0.1"/>
<path fill-rule="evenodd" clip-rule="evenodd" d="M1473.89 140.365C1467.76 143.037 1461.26 149.553 1459.4 154.886C1458.71 156.869 1456.7 160.043 1454.94 161.94C1450.4 166.825 1447.47 173.448 1448.3 176.967C1449.71 183.009 1457.49 186.991 1467.88 186.991C1470.19 186.991 1473.81 187.666 1475.92 188.491C1488.36 193.354 1504.68 187.173 1510.65 175.334C1513.58 169.528 1513.64 169.43 1518.04 163.986C1522.2 158.842 1524.07 153.151 1522.7 149.838C1520.48 144.454 1513.09 141.008 1503.74 140.997C1501.31 140.994 1497.6 140.316 1495.49 139.491C1489.65 137.206 1480.27 137.585 1473.89 140.365ZM1483.04 143.512C1483.04 146.637 1478.55 148.985 1475.74 147.328C1472.9 145.652 1473.65 143.773 1477.69 142.406C1482.89 140.65 1483.04 140.68 1483.04 143.512ZM1497.06 144.089C1504.53 147.587 1509.75 155.512 1509.75 163.341C1509.75 167.66 1509.61 167.846 1503.01 171.865C1495.47 176.463 1486.39 180.116 1477.88 181.98C1472.28 183.206 1472.14 183.18 1468.97 180.358C1463.87 175.832 1461.66 170.875 1461.66 163.991C1461.66 157.594 1463.9 152.023 1467.79 148.733C1469.77 147.051 1469.95 147.062 1471.81 148.983C1474.17 151.423 1480.45 151.674 1483.82 149.462C1485.11 148.621 1486.47 146.375 1486.85 144.471C1487.48 141.332 1487.81 141.067 1490.37 141.641C1491.92 141.99 1494.93 143.091 1497.06 144.089ZM1516.81 148.083C1518.23 149.336 1519.37 151.485 1519.37 152.915C1519.37 155.283 1515.84 161.991 1514.59 161.991C1514.3 161.991 1513.51 159.956 1512.84 157.47C1512.17 154.983 1510.19 151.092 1508.43 148.823L1505.24 144.697L1509.74 145.262C1512.26 145.579 1515.37 146.817 1516.81 148.083ZM1473.65 159.548C1470.66 161.51 1470.43 166.958 1473.23 169.336C1480.03 175.091 1489.38 166.035 1482.7 160.165C1479.78 157.598 1476.93 157.404 1473.65 159.548ZM1496.75 159.38C1493.92 160.695 1492.84 165.294 1494.84 167.551C1495.55 168.343 1497.76 168.991 1499.75 168.991C1502.59 168.991 1503.65 168.444 1504.6 166.491C1507.09 161.393 1502.12 156.891 1496.75 159.38ZM1480.29 162.56C1482.59 164.713 1480.62 168.238 1477.36 167.802C1474.4 167.405 1473.67 164.024 1476.18 162.307C1478.54 160.69 1478.27 160.673 1480.29 162.56ZM1501.2 163.991C1501.2 166.061 1498.63 166.751 1497.46 164.991C1496.57 163.637 1497.78 161.991 1499.66 161.991C1500.51 161.991 1501.2 162.891 1501.2 163.991ZM1463.22 179.526L1466.04 182.991L1462.52 182.987C1460.58 182.985 1457.43 182.092 1455.51 181.002C1452.62 179.349 1452.04 178.415 1452.04 175.374C1452.04 173.359 1453.1 170.13 1454.4 168.159L1456.76 164.591L1458.57 170.325C1459.58 173.48 1461.67 177.62 1463.22 179.526ZM1502.02 180.5C1496.94 184.802 1491.19 186.991 1484.96 186.991C1478.65 186.991 1479.46 185.726 1487.55 182.945C1491.83 181.476 1497.73 178.932 1500.67 177.291C1507.56 173.444 1508.3 175.185 1502.02 180.5Z" fill="white" fill-opacity="0.1"/>
<path fill-rule="evenodd" clip-rule="evenodd" d="M1097.69 23.3654C1091.56 26.0374 1085.06 32.5534 1083.2 37.8864C1082.51 39.8694 1080.5 43.0434 1078.74 44.9404C1074.2 49.8254 1071.27 56.4484 1072.1 59.9674C1073.51 66.0094 1081.29 69.9914 1091.68 69.9914C1093.99 69.9914 1097.61 70.6664 1099.72 71.4914C1112.16 76.3544 1128.48 70.1734 1134.45 58.3344C1137.38 52.5284 1137.44 52.4304 1141.84 46.9864C1146 41.8424 1147.87 36.1514 1146.51 32.8384C1144.28 27.4544 1136.89 24.0084 1127.54 23.9974C1125.11 23.9944 1121.4 23.3164 1119.29 22.4914C1113.45 20.2064 1104.07 20.5854 1097.69 23.3654ZM1106.84 26.5124C1106.84 29.6374 1102.35 31.9854 1099.54 30.3284C1096.7 28.6524 1097.45 26.7734 1101.49 25.4064C1106.69 23.6504 1106.84 23.6804 1106.84 26.5124ZM1120.86 27.0894C1128.33 30.5874 1133.55 38.5124 1133.55 46.3414C1133.55 50.6604 1133.41 50.8464 1126.81 54.8654C1119.27 59.4634 1110.19 63.1164 1101.68 64.9804C1096.08 66.2064 1095.94 66.1804 1092.77 63.3584C1087.67 58.8324 1085.46 53.8754 1085.46 46.9914C1085.46 40.5944 1087.7 35.0234 1091.59 31.7334C1093.57 30.0514 1093.75 30.0624 1095.61 31.9834C1097.97 34.4234 1104.25 34.6744 1107.62 32.4624C1108.91 31.6214 1110.27 29.3754 1110.65 27.4714C1111.28 24.3324 1111.61 24.0674 1114.17 24.6414C1115.72 24.9904 1118.73 26.0914 1120.86 27.0894ZM1140.61 31.0834C1142.03 32.3364 1143.17 34.4854 1143.17 35.9154C1143.17 38.2834 1139.64 44.9914 1138.39 44.9914C1138.1 44.9914 1137.31 42.9564 1136.64 40.4704C1135.97 37.9834 1133.99 34.0924 1132.23 31.8234L1129.04 27.6974L1133.54 28.2624C1136.06 28.5794 1139.17 29.8174 1140.61 31.0834ZM1097.45 42.5484C1094.46 44.5104 1094.23 49.9584 1097.03 52.3364C1103.83 58.0914 1113.18 49.0354 1106.5 43.1654C1103.58 40.5984 1100.73 40.4044 1097.45 42.5484ZM1120.55 42.3804C1117.72 43.6954 1116.64 48.2944 1118.64 50.5514C1119.35 51.3434 1121.56 51.9914 1123.55 51.9914C1126.39 51.9914 1127.45 51.4444 1128.4 49.4914C1130.89 44.3934 1125.92 39.8914 1120.55 42.3804ZM1104.09 45.5604C1106.39 47.7134 1104.42 51.2384 1101.16 50.8024C1098.2 50.4054 1097.47 47.0244 1099.98 45.3074C1102.34 43.6904 1102.07 43.6734 1104.09 45.5604ZM1125 46.9914C1125 49.0614 1122.43 49.7514 1121.26 47.9914C1120.37 46.6374 1121.58 44.9914 1123.46 44.9914C1124.31 44.9914 1125 45.8914 1125 46.9914ZM1087.02 62.5264L1089.84 65.9914L1086.32 65.9874C1084.38 65.9854 1081.23 65.0924 1079.31 64.0024C1076.42 62.3494 1075.84 61.4154 1075.84 58.3744C1075.84 56.3594 1076.9 53.1304 1078.2 51.1594L1080.56 47.5914L1082.37 53.3254C1083.38 56.4804 1085.47 60.6204 1087.02 62.5264ZM1125.82 63.5004C1120.75 67.8024 1114.99 69.9914 1108.76 69.9914C1102.45 69.9914 1103.26 68.7264 1111.36 65.9454C1115.63 64.4764 1121.53 61.9324 1124.47 60.2914C1131.36 56.4444 1132.1 58.1854 1125.82 63.5004Z" fill="white" fill-opacity="0.6"/>
<path fill-rule="evenodd" clip-rule="evenodd" d="M529.116 140.365C522.983 143.037 516.48 149.553 514.626 154.886C513.938 156.869 511.93 160.043 510.166 161.94C505.624 166.825 502.694 173.448 503.521 176.967C504.939 183.009 512.719 186.991 523.106 186.991C525.419 186.991 529.038 187.666 531.149 188.491C543.588 193.354 559.904 187.173 565.875 175.334C568.803 169.528 568.867 169.43 573.265 163.986C577.42 158.842 579.297 153.151 577.93 149.838C575.709 144.454 568.318 141.008 558.964 140.997C556.538 140.994 552.826 140.316 550.715 139.491C544.872 137.206 535.495 137.585 529.116 140.365ZM538.26 143.512C538.26 146.637 533.77 148.985 530.963 147.328C528.124 145.652 528.87 143.773 532.917 142.406C538.117 140.65 538.26 140.68 538.26 143.512ZM552.287 144.089C559.754 147.587 564.979 155.512 564.979 163.341C564.979 167.66 564.833 167.846 558.238 171.865C550.696 176.463 541.619 180.116 533.106 181.98C527.508 183.206 527.365 183.18 524.191 180.358C519.098 175.832 516.885 170.875 516.885 163.991C516.885 157.594 519.122 152.023 523.01 148.733C524.998 147.051 525.172 147.062 527.031 148.983C529.391 151.423 535.674 151.674 539.049 149.462C540.332 148.621 541.693 146.375 542.076 144.471C542.705 141.332 543.034 141.067 545.592 141.641C547.144 141.99 550.157 143.091 552.287 144.089ZM572.031 148.083C573.456 149.336 574.596 151.485 574.593 152.915C574.59 155.283 571.061 161.991 569.819 161.991C569.525 161.991 568.737 159.956 568.068 157.47C567.399 154.983 565.414 151.092 563.657 148.823L560.464 144.697L564.964 145.262C567.49 145.579 570.591 146.817 572.031 148.083ZM528.88 159.548C525.885 161.51 525.65 166.958 528.459 169.336C535.255 175.091 544.602 166.035 537.925 160.165C535.004 157.598 532.151 157.404 528.88 159.548ZM551.977 159.38C549.141 160.695 548.068 165.294 550.07 167.551C550.772 168.343 552.981 168.991 554.98 168.991C557.817 168.991 558.879 168.444 559.83 166.491C562.312 161.393 557.341 156.891 551.977 159.38ZM535.51 162.56C537.81 164.713 535.845 168.238 532.588 167.802C529.622 167.405 528.892 164.024 531.401 162.307C533.766 160.69 533.493 160.673 535.51 162.56ZM556.429 163.991C556.429 166.061 553.85 166.751 552.688 164.991C551.794 163.637 553 161.991 554.889 161.991C555.736 161.991 556.429 162.891 556.429 163.991ZM518.445 179.526L521.269 182.991L517.741 182.987C515.801 182.985 512.651 182.092 510.74 181.002C507.844 179.349 507.267 178.415 507.267 175.374C507.267 173.359 508.321 170.13 509.623 168.159L511.981 164.591L513.8 170.325C514.8 173.48 516.891 177.62 518.445 179.526ZM557.249 180.5C552.17 184.802 546.416 186.991 540.185 186.991C533.878 186.991 534.69 185.726 542.78 182.945C547.054 181.476 552.956 178.932 555.895 177.291C562.787 173.444 563.522 175.185 557.249 180.5Z" fill="white" fill-opacity="0.6"/>
<path fill-rule="evenodd" clip-rule="evenodd" d="M1383.05 416.365C1376.91 419.037 1370.41 425.553 1368.56 430.886C1367.87 432.869 1365.86 436.043 1364.1 437.94C1359.56 442.825 1356.63 449.448 1357.45 452.967C1358.87 459.009 1366.65 462.991 1377.04 462.991C1379.35 462.991 1382.97 463.666 1385.08 464.491C1397.52 469.354 1413.83 463.173 1419.81 451.334C1422.73 445.528 1422.8 445.43 1427.2 439.986C1431.35 434.842 1433.23 429.151 1431.86 425.838C1429.64 420.454 1422.25 417.008 1412.9 416.997C1410.47 416.994 1406.76 416.316 1404.65 415.491C1398.8 413.206 1389.43 413.585 1383.05 416.365ZM1392.19 419.512C1392.19 422.637 1387.7 424.985 1384.89 423.328C1382.06 421.652 1382.8 419.773 1386.85 418.406C1392.05 416.65 1392.19 416.68 1392.19 419.512ZM1406.22 420.089C1413.69 423.587 1418.91 431.512 1418.91 439.341C1418.91 443.66 1418.76 443.846 1412.17 447.865C1404.63 452.463 1395.55 456.116 1387.04 457.98C1381.44 459.206 1381.3 459.18 1378.12 456.358C1373.03 451.832 1370.82 446.875 1370.82 439.991C1370.82 433.594 1373.05 428.023 1376.94 424.733C1378.93 423.051 1379.1 423.062 1380.96 424.983C1383.32 427.423 1389.61 427.674 1392.98 425.462C1394.26 424.621 1395.62 422.375 1396.01 420.471C1396.64 417.332 1396.97 417.067 1399.52 417.641C1401.07 417.99 1404.09 419.091 1406.22 420.089ZM1425.96 424.083C1427.39 425.336 1428.53 427.485 1428.52 428.915C1428.52 431.283 1424.99 437.991 1423.75 437.991C1423.46 437.991 1422.67 435.956 1422 433.47C1421.33 430.983 1419.35 427.092 1417.59 424.823L1414.39 420.697L1418.9 421.262C1421.42 421.579 1424.52 422.817 1425.96 424.083ZM1382.81 435.548C1379.82 437.51 1379.58 442.958 1382.39 445.336C1389.19 451.091 1398.53 442.035 1391.86 436.165C1388.94 433.598 1386.08 433.404 1382.81 435.548ZM1405.91 435.38C1403.07 436.695 1402 441.294 1404 443.551C1404.7 444.343 1406.91 444.991 1408.91 444.991C1411.75 444.991 1412.81 444.444 1413.76 442.491C1416.24 437.393 1411.27 432.891 1405.91 435.38ZM1389.44 438.56C1391.74 440.713 1389.78 444.238 1386.52 443.802C1383.55 443.405 1382.82 440.024 1385.33 438.307C1387.7 436.69 1387.42 436.673 1389.44 438.56ZM1410.36 439.991C1410.36 442.061 1407.78 442.751 1406.62 440.991C1405.73 439.637 1406.93 437.991 1408.82 437.991C1409.67 437.991 1410.36 438.891 1410.36 439.991ZM1372.38 455.526L1375.2 458.991L1371.67 458.987C1369.73 458.985 1366.58 458.092 1364.67 457.002C1361.77 455.349 1361.2 454.415 1361.2 451.374C1361.2 449.359 1362.25 446.13 1363.55 444.159L1365.91 440.591L1367.73 446.325C1368.73 449.48 1370.82 453.62 1372.38 455.526ZM1411.18 456.5C1406.1 460.802 1400.35 462.991 1394.12 462.991C1387.81 462.991 1388.62 461.726 1396.71 458.945C1400.99 457.476 1406.89 454.932 1409.83 453.291C1416.72 449.444 1417.45 451.185 1411.18 456.5Z" fill="white" fill-opacity="0.1"/>
<path fill-rule="evenodd" clip-rule="evenodd" d="M1008.55 65.6143C1005.58 60.13 1004.15 58.7553 998.476 55.8804L993.937 53.5807L999.377 50.7213C1004.68 47.936 1004.89 47.7402 1007.55 43.1749C1009.05 40.5972 1010.48 38.279 1010.74 38.0224C1011 37.7665 1012.42 39.7308 1013.9 42.3885C1016.75 47.5087 1017.5 48.1955 1023.64 51.321C1025.78 52.4088 1027.31 53.5055 1027.04 53.7573C1026.77 54.0097 1024.37 55.4024 1021.7 56.8518C1016.98 59.42 1016.77 59.624 1013.89 64.7443L1010.93 70L1008.55 65.6143Z" fill="white" fill-opacity="0.5"/>
<path fill-rule="evenodd" clip-rule="evenodd" d="M845.032 328.614C842.057 323.13 840.634 321.755 834.958 318.88L830.419 316.581L835.858 313.721C841.157 310.936 841.369 310.74 844.026 306.175C845.527 303.597 846.965 301.279 847.224 301.022C847.481 300.766 848.903 302.731 850.384 305.388C853.236 310.509 853.985 311.196 860.123 314.321C862.259 315.409 863.788 316.506 863.519 316.757C863.251 317.01 860.849 318.402 858.181 319.852C853.456 322.42 853.254 322.624 850.371 327.744L847.412 333L845.032 328.614Z" fill="white" fill-opacity="0.8"/>
<path fill-rule="evenodd" clip-rule="evenodd" d="M1306.73 423.614C1303.76 418.13 1302.33 416.755 1296.66 413.88L1292.12 411.581L1297.56 408.721C1302.86 405.936 1303.07 405.74 1305.73 401.175C1307.23 398.597 1308.67 396.279 1308.92 396.022C1309.18 395.766 1310.6 397.731 1312.08 400.388C1314.94 405.509 1315.69 406.196 1321.82 409.321C1323.96 410.409 1325.49 411.506 1325.22 411.757C1324.95 412.01 1322.55 413.402 1319.88 414.852C1315.16 417.42 1314.95 417.624 1312.07 422.744L1309.11 428L1306.73 423.614Z" fill="white" fill-opacity="0.5"/>
<path fill-rule="evenodd" clip-rule="evenodd" d="M882.438 221.614C879.463 216.13 878.04 214.755 872.364 211.88L867.825 209.581L873.264 206.721C878.564 203.936 878.775 203.74 881.433 199.175C882.933 196.597 884.372 194.279 884.63 194.022C884.887 193.766 886.31 195.731 887.79 198.388C890.642 203.509 891.391 204.196 897.529 207.321C899.665 208.409 901.194 209.506 900.926 209.757C900.657 210.01 898.255 211.402 895.588 212.852C890.863 215.42 890.66 215.624 887.777 220.744L884.818 226L882.438 221.614Z" fill="white" fill-opacity="0.5"/>
<path fill-rule="evenodd" clip-rule="evenodd" d="M1214.82 71.6143C1211.84 66.13 1210.42 64.7553 1204.75 61.8804L1200.21 59.5807L1205.65 56.7213C1210.94 53.936 1211.16 53.7402 1213.81 49.1749C1215.31 46.5972 1216.75 44.279 1217.01 44.0224C1217.27 43.7665 1218.69 45.7308 1220.17 48.3885C1223.02 53.5087 1223.77 54.1955 1229.91 57.321C1232.05 58.4088 1233.57 59.5055 1233.31 59.7573C1233.04 60.0097 1230.64 61.4024 1227.97 62.8518C1223.24 65.42 1223.04 65.624 1220.16 70.7443L1217.2 76L1214.82 71.6143Z" fill="white" fill-opacity="0.5"/>
<path fill-rule="evenodd" clip-rule="evenodd" d="M408.982 103.614C406.007 98.13 404.584 96.7553 398.908 93.8804L394.369 91.5807L399.808 88.7213C405.107 85.936 405.319 85.7402 407.977 81.1749C409.477 78.5972 410.915 76.279 411.174 76.0224C411.431 75.7665 412.853 77.7308 414.334 80.3885C417.186 85.5087 417.935 86.1955 424.073 89.321C426.209 90.4088 427.738 91.5055 427.47 91.7573C427.201 92.0097 424.799 93.4024 422.131 94.8518C417.407 97.42 417.204 97.624 414.321 102.744L411.362 108L408.982 103.614Z" fill="white" fill-opacity="0.5"/>
<path fill-rule="evenodd" clip-rule="evenodd" d="M1366.58 189.614C1363.61 184.13 1362.18 182.755 1356.51 179.88L1351.97 177.581L1357.41 174.721C1362.71 171.936 1362.92 171.74 1365.58 167.175C1367.08 164.597 1368.52 162.279 1368.77 162.022C1369.03 161.766 1370.45 163.731 1371.93 166.388C1374.79 171.509 1375.54 172.196 1381.67 175.321C1383.81 176.409 1385.34 177.506 1385.07 177.757C1384.8 178.01 1382.4 179.402 1379.73 180.852C1375.01 183.42 1374.8 183.624 1371.92 188.744L1368.96 194L1366.58 189.614Z" fill="white" fill-opacity="0.4"/>
<path fill-rule="evenodd" clip-rule="evenodd" d="M594.944 292.614C591.969 287.13 590.546 285.755 584.87 282.88L580.331 280.581L585.771 277.721C591.07 274.936 591.281 274.74 593.939 270.175C595.439 267.597 596.878 265.279 597.136 265.022C597.394 264.766 598.816 266.731 600.296 269.388C603.148 274.509 603.898 275.196 610.035 278.321C612.172 279.409 613.7 280.506 613.432 280.757C613.163 281.01 610.762 282.402 608.094 283.852C603.369 286.42 603.166 286.624 600.284 291.744L597.324 297L594.944 292.614Z" fill="white" fill-opacity="0.5"/>
<path fill-rule="evenodd" clip-rule="evenodd" d="M750.982 103.614C748.007 98.13 746.584 96.7553 740.908 93.8804L736.369 91.5807L741.808 88.7213C747.107 85.936 747.319 85.7402 749.977 81.1749C751.477 78.5972 752.915 76.279 753.174 76.0224C753.431 75.7665 754.853 77.7308 756.334 80.3885C759.186 85.5087 759.935 86.1955 766.073 89.321C768.209 90.4088 769.738 91.5055 769.469 91.7573C769.201 92.0097 766.799 93.4024 764.131 94.8518C759.407 97.42 759.204 97.624 756.321 102.744L753.362 108L750.982 103.614Z" fill="white" fill-opacity="0.8"/>
<path d="M88.9345 199.261C115.9 132.341 209.126 -77.4825 252.225 199.261V264.999H88.9345C88.9345 264.999 61.9693 266.181 88.9345 199.261Z" fill="white"/>
<path fill-rule="evenodd" clip-rule="evenodd" d="M861.497 21.3654C855.364 24.0374 848.861 30.5534 847.007 35.8864C846.319 37.8694 844.311 41.0434 842.547 42.9404C838.005 47.8254 835.076 54.4484 835.902 57.9674C837.32 64.0094 845.1 67.9914 855.488 67.9914C857.8 67.9914 861.419 68.6664 863.53 69.4914C875.969 74.3544 892.285 68.1734 898.256 56.3344C901.184 50.5284 901.248 50.4304 905.646 44.9864C909.802 39.8424 911.678 34.1514 910.311 30.8384C908.091 25.4544 900.699 22.0084 891.345 21.9974C888.919 21.9944 885.208 21.3164 883.097 20.4914C877.253 18.2064 867.877 18.5854 861.497 21.3654ZM870.642 24.5124C870.642 27.6374 866.152 29.9854 863.344 28.3284C860.505 26.6524 861.251 24.7734 865.298 23.4064C870.498 21.6504 870.642 21.6804 870.642 24.5124ZM884.668 25.0894C892.135 28.5874 897.36 36.5124 897.36 44.3414C897.36 48.6604 897.214 48.8464 890.62 52.8654C883.077 57.4634 874.001 61.1164 865.487 62.9804C859.889 64.2064 859.747 64.1804 856.572 61.3584C851.479 56.8324 849.266 51.8754 849.266 44.9914C849.266 38.5944 851.503 33.0234 855.391 29.7334C857.379 28.0514 857.554 28.0624 859.412 29.9834C861.772 32.4234 868.055 32.6744 871.43 30.4624C872.713 29.6214 874.074 27.3754 874.457 25.4714C875.086 22.3324 875.416 22.0674 877.973 22.6414C879.525 22.9904 882.538 24.0914 884.668 25.0894ZM904.412 29.0834C905.838 30.3364 906.977 32.4854 906.975 33.9154C906.972 36.2834 903.443 42.9914 902.201 42.9914C901.907 42.9914 901.118 40.9564 900.449 38.4704C899.78 35.9834 897.795 32.0924 896.038 29.8234L892.845 25.6974L897.345 26.2624C899.871 26.5794 902.972 27.8174 904.412 29.0834ZM861.261 40.5484C858.266 42.5104 858.031 47.9584 860.84 50.3364C867.636 56.0914 876.983 47.0354 870.306 41.1654C867.385 38.5984 864.533 38.4044 861.261 40.5484ZM884.358 40.3804C881.522 41.6954 880.449 46.2944 882.451 48.5514C883.153 49.3434 885.362 49.9914 887.361 49.9914C890.199 49.9914 891.26 49.4444 892.211 47.4914C894.694 42.3934 889.722 37.8914 884.358 40.3804ZM867.892 43.5604C870.192 45.7134 868.226 49.2384 864.97 48.8024C862.003 48.4054 861.273 45.0244 863.782 43.3074C866.147 41.6904 865.874 41.6734 867.892 43.5604ZM888.81 44.9914C888.81 47.0614 886.231 47.7514 885.07 45.9914C884.175 44.6374 885.382 42.9914 887.27 42.9914C888.118 42.9914 888.81 43.8914 888.81 44.9914ZM850.826 60.5264L853.65 63.9914L850.123 63.9874C848.182 63.9854 845.032 63.0924 843.121 62.0024C840.225 60.3494 839.648 59.4154 839.648 56.3744C839.648 54.3594 840.703 51.1304 842.004 49.1594L844.362 45.5914L846.181 51.3254C847.181 54.4804 849.272 58.6204 850.826 60.5264ZM889.63 61.5004C884.551 65.8024 878.797 67.9914 872.566 67.9914C866.26 67.9914 867.071 66.7264 875.161 63.9454C879.435 62.4764 885.337 59.9324 888.276 58.2914C895.168 54.4444 895.904 56.1854 889.63 61.5004Z" fill="white" fill-opacity="0.1"/>
</g>
<defs>
<linearGradient id="paint0_linear_4_6" x1="0" y1="0" x2="1526.18" y2="-4.21231e-05" gradientUnits="userSpaceOnUse">
<stop stop-color="#12E3EA"/>
<stop offset="0.345938" stop-color="#32C1EF"/>
<stop offset="0.753125" stop-color="#6091F7"/>
<stop offset="1" stop-color="#8B66FB"/>
</linearGradient>
<clipPath id="clip0_4_6">
<rect width="1539" height="530" fill="white"/>
</clipPath>
</defs>
</svg>
